<?xml version="1.0" encoding="iso-8859-1"?>
<!-- Generator: Adobe Illustrator 19.0.0, SVG Export Plug-In . SVG Version: 6.00 Build 0)  -->
<svg version="1.1" id="Capa_1" xmlns="http://www.w3.org/2000/svg" xmlns:xlink="http://www.w3.org/1999/xlink" x="0px" y="0px"
	 viewBox="0 0 512 512" style="enable-background:new 0 0 512 512;" xml:space="preserve">
<polygon style="fill:#C6C5CA;" points="337.96,211.116 337.96,243.9 305.176,243.9 305.176,211.116 272.392,211.116 272.392,243.9 
	239.608,243.9 239.608,211.116 206.824,211.116 206.824,243.9 174.04,243.9 174.04,211.116 141.256,211.116 141.256,433.451 
	370.744,433.451 370.744,211.116 "/>
<g>
	<path style="fill:#898890;" d="M324.894,433.451h-97.008V319.236c8.768-8.768,13.684-13.684,22.453-22.453h52.102
		c8.768,8.768,13.684,13.684,22.453,22.453V433.451z"/>
	<rect x="337.96" y="211.12" style="fill:#898890;" width="16.478" height="32.784"/>
	<rect x="272.39" y="211.12" style="fill:#898890;" width="16.478" height="32.784"/>
	<rect x="141.26" y="211.12" style="fill:#898890;" width="16.478" height="222.34"/>
	<rect x="206.82" y="211.12" style="fill:#898890;" width="16.478" height="32.784"/>
</g>
<g>
	<polygon style="fill:#C6C5CA;" points="138.636,133.233 138.636,166.017 105.852,166.017 105.852,133.233 73.068,133.233 
		73.068,166.017 40.284,166.017 40.284,133.233 7.5,133.233 7.5,211.116 37.665,211.116 37.665,433.451 141.256,433.451 
		141.256,211.116 171.42,211.116 171.42,133.233 	"/>
	<polygon style="fill:#C6C5CA;" points="471.716,133.233 471.716,166.017 438.932,166.017 438.932,133.233 406.148,133.233 
		406.148,166.017 373.364,166.017 373.364,133.233 340.58,133.233 340.58,211.116 370.744,211.116 370.744,433.451 474.335,433.451 
		474.335,211.116 504.5,211.116 504.5,133.233 	"/>
</g>
<g>
	<rect x="92.19" y="254.77" style="fill:#898890;" width="35.33" height="35.33"/>
	<rect x="425.26" y="254.77" style="fill:#898890;" width="35.33" height="35.33"/>
	<rect x="138.64" y="133.23" style="fill:#898890;" width="18.18" height="32.784"/>
	<rect x="471.72" y="133.23" style="fill:#898890;" width="18.18" height="32.784"/>
	<rect x="73.07" y="133.23" style="fill:#898890;" width="18.18" height="32.784"/>
	<rect x="406.15" y="133.23" style="fill:#898890;" width="18.18" height="32.784"/>
	<rect x="370.74" y="211.12" style="fill:#898890;" width="18.18" height="222.34"/>
	<rect x="340.58" y="133.23" style="fill:#898890;" width="18.18" height="77.883"/>
	<rect x="37.665" y="211.12" style="fill:#898890;" width="18.18" height="222.34"/>
	<rect x="7.5" y="133.23" style="fill:#898890;" width="18.18" height="77.883"/>
	<rect x="71.794" y="254.77" style="fill:#898890;" width="35.33" height="35.33"/>
	<rect x="404.87" y="254.77" style="fill:#898890;" width="35.33" height="35.33"/>
</g>
<path style="fill:#FFB655;" d="M304.504,433.451h-97.008V319.236c8.768-8.768,13.684-13.684,22.453-22.453h52.102
	c8.768,8.768,13.684,13.684,22.453,22.453V433.451z"/>
<g>
	<polygon style="fill:#FF7956;" points="254.926,296.784 229.949,296.784 207.496,319.236 207.496,433.451 232.474,433.451 
		232.474,319.236 	"/>
	<polygon style="fill:#FF7956;" points="299.67,85.503 256,85.503 256,49.276 299.67,49.276 299.67,67.39 	"/>
</g>
<polygon style="fill:#FF3F62;" points="274.333,85.503 256,85.503 256,49.276 274.333,49.276 274.333,67.39 "/>
<rect x="299.67" y="67.39" style="fill:#FF7956;" width="43.67" height="36.23"/>
<rect x="299.67" y="67.39" style="fill:#FF3F62;" width="18.663" height="36.23"/>
<rect x="7.5" y="433.45" style="fill:#B6E892;" width="497" height="29.27"/>
<rect x="7.5" y="433.45" style="fill:#95D6A6;" width="122.5" height="29.27"/>
<g>
	<rect x="96.46" y="183.02" style="fill:#FFFFFF;" width="56.789" height="15"/>
	<rect x="46.46" y="183.02" style="fill:#FFFFFF;" width="15" height="15"/>
	<rect x="71.46" y="183.02" style="fill:#FFFFFF;" width="15" height="15"/>
	<rect x="425.31" y="183.02" style="fill:#FFFFFF;" width="56.789" height="15"/>
	<rect x="400.31" y="183.02" style="fill:#FFFFFF;" width="15" height="15"/>
	<rect x="375.31" y="183.02" style="fill:#FFFFFF;" width="15" height="15"/>
	<rect x="241.68" y="266.85" style="fill:#FFFFFF;" width="15" height="15"/>
	<rect x="266.68" y="266.85" style="fill:#FFFFFF;" width="15" height="15"/>
	<rect x="291.68" y="266.85" style="fill:#FFFFFF;" width="56.789" height="15"/>
</g>
<g>
	<rect x="414.92" y="391.98" style="fill:#1D1D1F;" width="15" height="15"/>
	<rect x="389.92" y="391.98" style="fill:#1D1D1F;" width="15" height="15"/>
	<rect x="439.92" y="391.98" style="fill:#1D1D1F;" width="15" height="15"/>
	<rect x="56.843" y="378.97" style="fill:#1D1D1F;" width="15" height="15"/>
	<rect x="81.84" y="378.97" style="fill:#1D1D1F;" width="15" height="15"/>
	<rect x="106.84" y="378.97" style="fill:#1D1D1F;" width="15" height="15"/>
	<path style="fill:#1D1D1F;" d="M30.165,442.87h118.591V299.519h32.128v-15h-32.128v-63.984h30.165v-92.883h-47.784v32.784h-17.784
		v-32.784H65.568v32.784H47.784v-32.784H0v92.883h30.165V442.87z M15,205.535v-62.883h17.784v32.784h47.784v-32.784h17.784v32.784
		h47.784v-32.784h17.784v62.883h-30.165V427.87h-88.59v-98.843h26.63v-15h-26.63v-93.492h54.688v-15L15,205.535L15,205.535z"/>
	<path style="fill:#1D1D1F;" d="M464.216,127.651v32.784h-17.784v-32.784h-47.784v32.784h-17.784v-32.784H333.08v92.883h30.165
		v176.273h-32.128v15h32.128v31.062h118.591V220.535H512v-92.883L464.216,127.651L464.216,127.651z M497,205.535h-30.165V343.6
		h-41.084v15h41.084v69.27h-88.591v-98.843h20.299v-15h-20.299v-93.492h54.013v-15h-84.178v-62.883h17.784v32.784h47.784v-32.784
		h17.784v32.784h47.784v-32.784H497V205.535z"/>
	<path style="fill:#1D1D1F;" d="M114.626,249.187H64.294v50.332h50.332V249.187z M99.626,284.519H79.294v-20.332h20.332V284.519z"/>
	<path style="fill:#1D1D1F;" d="M397.374,299.519h50.331v-50.332h-50.331V299.519z M412.374,264.187h20.331v20.332h-20.331V264.187z
		"/>
	<path style="fill:#1D1D1F;" d="M330.13,358.6v-15h-18.126v-25.552l-26.847-26.846h-58.315l-26.846,26.846v76.674h-31.927v15h31.927
		v18.147h-38.74v15h189.488v-15h-38.74V358.6H330.13z M247.023,427.87v-86.334h-15v86.334h-17.027V324.261l18.059-18.059h45.889
		l18.06,18.059V427.87H247.023z"/>
	<rect x="264.98" y="374.2" style="fill:#1D1D1F;" width="15" height="15"/>
	<rect x="264.98" y="324.2" style="fill:#1D1D1F;" width="15" height="15"/>
	<rect x="264.98" y="349.2" style="fill:#1D1D1F;" width="15" height="15"/>
	<path style="fill:#1D1D1F;" d="M263.5,94.921h28.67v18.114h58.67V61.808h-43.67V43.694H263.5v-3.837h-15v153.177h15V94.921z
		 M335.84,76.808v21.227h-28.67V76.808H335.84z M292.17,58.694v21.227H263.5V58.694H292.17z"/>
	<polygon style="fill:#1D1D1F;" points="497,457.143 15,457.143 15,435.37 0,435.37 0,472.143 512,472.143 512,435.37 497,435.37 	
		"/>
	<polygon style="fill:#1D1D1F;" points="166.54,233.035 166.54,253.318 214.324,253.318 214.324,220.535 232.108,220.535 
		232.108,253.318 279.892,253.318 279.892,220.535 297.676,220.535 297.676,253.318 345.46,253.318 345.46,233.035 330.46,233.035 
		330.46,238.318 312.676,238.318 312.676,205.535 264.892,205.535 264.892,238.318 247.108,238.318 247.108,205.535 
		199.324,205.535 199.324,238.318 181.54,238.318 181.54,233.035 	"/>
</g>
<g>
</g>
<g>
</g>
<g>
</g>
<g>
</g>
<g>
</g>
<g>
</g>
<g>
</g>
<g>
</g>
<g>
</g>
<g>
</g>
<g>
</g>
<g>
</g>
<g>
</g>
<g>
</g>
<g>
</g>
</svg>
