<?xml version="1.0" encoding="iso-8859-1"?>
<!-- Generator: Adobe Illustrator 19.0.0, SVG Export Plug-In . SVG Version: 6.00 Build 0)  -->
<svg version="1.1" id="Layer_1" xmlns="http://www.w3.org/2000/svg" xmlns:xlink="http://www.w3.org/1999/xlink" x="0px" y="0px"
	 viewBox="0 0 512.001 512.001" style="enable-background:new 0 0 512.001 512.001;" xml:space="preserve">
<path style="fill:#FF3501;" d="M304.749,171.254c0,0,92.77-25.837,70.432,49.626L304.749,171.254z"/>
<path style="fill:#FF6243;" d="M94.701,170.885c0,0,58.952-72.038,164.904-60.171c0,0,45.144,3.39,45.144,60.54L94.701,170.885z"/>
<path style="fill:#FF3501;" d="M303.63,340.674c0,0,88.435,21.096,73.811-58.503L303.63,340.674z"/>
<path style="fill:#FF6243;" d="M97.78,339.076c0,0,72.204,95.532,189.175,52.303c0,0,36.024-11.443,16.675-50.705L97.78,339.076z"/>
<g>
	<path style="fill:#FF3501;" d="M186.377,115.828c-59.508,15.764-91.676,55.058-91.676,55.058l210.048,0.369
		c0-14.094-2.749-24.913-6.885-33.223c-29.488-13.171-63.518-22.476-100.838-22.476
		C193.465,115.555,189.917,115.663,186.377,115.828z"/>
	<path style="fill:#FF3501;" d="M303.63,340.674l-205.85-1.598c0,0,17.164,22.698,48.299,40.96
		c32.833,8.534,56.211,8.654,57.368,8.654c36.417,0,71.785-9.155,105.885-27.288C309.225,355.563,307.586,348.7,303.63,340.674z"/>
</g>
<path style="fill:#FF7956;" d="M451.351,179.613c36.77,0,60.649,29.808,60.649,66.58s-23.879,66.58-60.649,66.58
	s-91.972-29.808-91.972-66.58S414.58,179.613,451.351,179.613z"/>
<path style="fill:#FF6243;" d="M451.351,277.994c-30.754,0-74.393-20.854-87.853-49.191c-2.634,5.544-4.119,11.372-4.119,17.389
	c0,36.771,55.201,66.58,91.972,66.58s60.649-29.808,60.649-66.58c0-6.017-0.651-11.844-1.882-17.389
	C503.827,257.139,482.104,277.994,451.351,277.994z"/>
<path style="fill:#3E3D42;" d="M451.351,179.613c-4.694,0-9.69,0.489-14.831,1.413c29.057,6.309,47.237,33.085,47.237,65.167
	s-18.18,58.858-47.237,65.167c5.142,0.924,10.137,1.413,14.831,1.413c36.77,0,60.649-29.808,60.649-66.58
	S488.122,179.613,451.351,179.613z"/>
<path style="fill:#1D1D1F;" d="M512,246.192c0-6.018-0.651-11.844-1.882-17.389c-4.109,18.511-14.808,33.826-30.306,42.223
	c-6.831,20.366-22.188,35.749-43.292,40.332c5.142,0.924,10.137,1.413,14.831,1.413C488.122,312.772,512,282.963,512,246.192z"/>
<path style="fill:#FF7956;" d="M400.827,245.518c-0.611-3.754-4.984-10.068-4.984-10.068
	c-14.593-16.53-92.761-98.993-198.817-98.993c-68.026,0-132.688,33.425-192.19,99.344c-6.167,6.833-6.375,16.947-0.97,24.395
	C81.958,367.798,203.439,367.79,203.448,367.79c68.316,0,133.297-35.972,193.133-106.914
	C400.17,256.621,401.721,251.011,400.827,245.518z"/>
<path style="fill:#FF6243;" d="M396.581,260.875c3.589-4.255,5.141-9.864,4.246-15.358c-0.61-3.754-4.984-10.068-4.984-10.068
	c-0.965-1.093-2.216-2.482-3.727-4.108c-58.589,67.461-122.023,101.672-188.63,101.672c-0.008,0-0.015,0-0.022,0
	c-100.922-0.01-175.132-78.629-194.612-101.539c-0.023,0.024-0.061,0.039-0.092,0.056c-1.311,1.415-2.621,2.825-3.925,4.27
	c-6.167,6.833-6.375,16.947-0.97,24.395c78.092,107.602,199.574,107.594,199.582,107.594
	C271.764,367.789,336.745,331.818,396.581,260.875z"/>
<path style="fill:#3E3D42;" d="M60.094,234.529c-2.431,0-4.799-0.982-6.504-2.7c-1.719-1.707-2.7-4.087-2.7-6.504
	c0-2.418,0.981-4.799,2.7-6.505c1.706-1.718,4.074-2.699,6.504-2.699c2.43,0,4.799,0.981,6.504,2.699
	c1.719,1.707,2.7,4.087,2.7,6.505c0,2.417-0.981,4.799-2.7,6.504C64.893,233.547,62.523,234.529,60.094,234.529z"/>
<g>
	<path style="fill:#FF6243;" d="M168.061,170.078c-0.527-4.297,2.52-8.21,6.815-8.742c7.321-0.906,14.773-1.366,22.149-1.366
		c4.33,0,7.838,3.508,7.838,7.838c0,4.33-3.508,7.838-7.838,7.838c-6.735,0-13.54,0.419-20.223,1.247
		C176.476,176.932,169.091,178.476,168.061,170.078z"/>
	<path style="fill:#FF6243;" d="M223.156,177.676c-1.625-0.252-3.301-0.488-4.982-0.699c-4.294-0.541-7.337-4.461-6.797-8.757
		c0.54-4.295,4.467-7.336,8.757-6.797c1.828,0.231,3.655,0.487,5.428,0.762c4.277,0.665,7.428,4.71,6.542,8.949
		C230.488,178.868,223.564,177.74,223.156,177.676z"/>
</g>
<path style="fill:#FFFFFF;" d="M145.218,358.103c14.903-54.49,17.926-111.334,9.05-168.719c-2.688-17.377-6.197-32.88-9.802-46.108
	c-16.133,4.242-32.038,10.447-47.689,18.624c2.782,10.838,5.446,23.29,7.508,37.067c7.204,48.136,5.002,95.774-6.505,140.818
	C112.983,347.383,128.228,353.016,145.218,358.103z"/>
<path style="fill:#FFBCAB;" d="M104.308,307.756c-1.672,10.8-3.835,21.488-6.528,32.03c15.204,7.598,30.447,13.23,47.438,18.318
	c2.873-10.503,5.298-21.095,7.288-31.759C135.222,321.831,119.092,315.327,104.308,307.756z"/>
<path style="fill:#FFFFFF;" d="M303.704,163.939c-14.562-7.522-30.504-14.166-47.611-19.04c-3.451,12.871-6.788,27.819-9.367,44.496
	c-8.95,57.865-5.573,116.09,9.65,170.981c15.979-4.513,31.739-11.073,47.253-19.702c-11.865-45.528-14.208-92.992-6.92-141.695
	C298.645,186.052,301.11,174.295,303.704,163.939z"/>
<path style="fill:#FFBCAB;" d="M256.451,360.376c15.979-4.513,31.739-11.073,47.253-19.702c-2.689-10.317-4.862-20.737-6.571-31.244
	c-15.853,8.189-31.956,14.254-48.283,18.178C250.926,338.639,253.455,349.574,256.451,360.376z"/>
<path style="fill:#FFFFFF;" d="M409.014,189.654c-13.27,5.915-25.751,14.145-34.878,23.911c-4.7-4.301-10.055-8.951-15.98-13.752
	v101.14c6.48-5.882,12.912-12.132,19.285-18.783c8.724,8.309,19.841,15.333,31.571,20.56V189.654H409.014z"/>
<g>
	<path style="fill:#3E3D42;" d="M105.904,343.664c4.544-14.139,16.655-61.275,6.132-140.889c-1.276-9.655-7.424-34.988-9.548-43.763
		c-4.782,2.343-9.539,4.875-14.274,7.582c2.809,11.292,6.695,27.652,8.319,38.502c6.675,44.611,4.684,89.326-5.16,131.385
		C96.29,339.1,101.092,341.464,105.904,343.664z"/>
	<path style="fill:#3E3D42;" d="M153.929,360.473c4.95-15.075,22.806-78.047,8.086-168.652c-2.489-15.321-6.315-35.192-10.34-50.307
		c-5.243,1.183-10.462,2.577-15.658,4.173c3.824,14.594,8.356,34.631,10.505,48.53c8.528,55.131,5.884,109.079-8.006,161.859
		C143.909,357.758,148.996,359.242,153.929,360.473z"/>
</g>
<g>
	<path style="fill:#1D1D1F;" d="M105.904,343.664c1.777-5.527,4.706-16.122,6.99-31.705c-5.355-2.498-10.546-5.148-15.57-7.91
		c-1.472,10.951-3.458,21.777-5.952,32.431C96.29,339.1,101.092,341.464,105.904,343.664z"/>
	<path style="fill:#1D1D1F;" d="M153.929,360.473c1.71-5.205,4.958-16.126,7.872-31.921c-5.554-1.186-11.001-2.579-16.329-4.161
		c-1.875,10.608-4.189,21.171-6.956,31.686C143.909,357.758,148.996,359.242,153.929,360.473z"/>
</g>
<g>
	<path style="fill:#3E3D42;" d="M263.608,147.175c-4.925-1.581-9.946-3.02-15.073-4.295c-3.967,14.797-7.191,30.053-9.553,45.325
		c-9.139,59.085-5.844,117.699,9.809,174.191c5.051-1.215,10.096-2.675,15.103-4.299c-15.036-54.312-18.213-110.652-9.42-167.496
		C256.736,175.969,259.815,161.353,263.608,147.175z"/>
	<path style="fill:#3E3D42;" d="M310.8,167.731c-4.573-2.526-9.263-4.958-14.127-7.301c-0.247,0.496-5.805,25.31-7.714,37.283
		c-12.098,75.906,7.501,146.104,7.791,146.644c4.671-2.405,9.33-4.979,13.958-7.752c-11.115-43.828-13.239-89.838-6.246-136.571
		C306.084,189.193,308.192,178.387,310.8,167.731z"/>
</g>
<g>
	<path style="fill:#1D1D1F;" d="M263.894,358.097c-2.976-10.749-5.479-21.579-7.525-32.475c-5.073,1.432-10.166,2.672-15.282,3.687
		c2.105,11.101,4.669,22.134,7.704,33.088C253.841,361.181,258.887,359.721,263.894,358.097z"/>
	<path style="fill:#1D1D1F;" d="M310.8,336.604c-2.602-10.262-4.692-20.648-6.308-31.13c-4.726,2.65-9.475,5.118-14.245,7.386
		c3.1,19.295,6.476,31.274,6.595,31.496C301.514,341.952,306.173,339.378,310.8,336.604z"/>
</g>
<path style="fill:#FFBCAB;" d="M383.102,252.124c-6.045-4.805-10.455-0.002-10.455-0.002c-4.801,4.838-9.631,9.456-14.491,13.866
	v34.965c6.48-5.882,12.912-12.132,19.285-18.783c8.724,8.309,19.843,15.334,31.571,20.562V267.78
	C399.682,263.622,386.288,254.657,383.102,252.124z"/>
<path style="fill:#3E3D42;" d="M350.318,307.933c5.26-4.493,10.484-9.253,15.676-14.246v-87.301
	c-4.756-4.088-9.992-8.364-15.676-12.704V307.933z"/>
<path style="fill:#1D1D1F;" d="M350.318,307.933c5.26-4.493,10.484-9.253,15.676-14.246v-35.023
	c-5.191,4.993-10.417,9.736-15.676,14.228V307.933z"/>
<path style="fill:#3E3D42;" d="M401.176,298.927c5.075,2.689,10.352,5.04,15.676,7.005V186.453
	c-5.324,1.965-10.601,4.316-15.676,7.005V298.927z"/>
<path style="fill:#1D1D1F;" d="M401.176,298.927c5.075,2.689,10.352,5.04,15.676,7.005V270.97
	c-5.324-1.965-10.601-4.314-15.676-7.003V298.927z"/>
<path style="fill:#FF3501;" d="M202.094,257.891c15.858,8.415,21.892,28.092,13.478,43.95c-8.415,15.858-28.092,21.892-43.95,13.478
	c-15.858-8.415-39.777-37.581-31.362-53.44S186.236,249.476,202.094,257.891z"/>
<path style="fill:#1D1D1F;" d="M202.094,257.891c-2.056-1.091-4.482-2.096-7.158-2.989c7.987,9.828,9.802,23.865,3.493,35.756
	c-7.54,14.211-24.123,20.524-38.899,15.629c4.125,3.871,8.334,7.038,12.091,9.032c15.858,8.415,35.535,2.381,43.95-13.477
	C223.986,285.983,217.952,266.305,202.094,257.891z"/>
<g>
</g>
<g>
</g>
<g>
</g>
<g>
</g>
<g>
</g>
<g>
</g>
<g>
</g>
<g>
</g>
<g>
</g>
<g>
</g>
<g>
</g>
<g>
</g>
<g>
</g>
<g>
</g>
<g>
</g>
</svg>
