<?xml version="1.0" encoding="iso-8859-1"?>
<!-- Generator: Adobe Illustrator 19.0.0, SVG Export Plug-In . SVG Version: 6.00 Build 0)  -->
<svg version="1.1" id="Layer_1" xmlns="http://www.w3.org/2000/svg" xmlns:xlink="http://www.w3.org/1999/xlink" x="0px" y="0px"
	 viewBox="0 0 512 512" style="enable-background:new 0 0 512 512;" xml:space="preserve">
<g>
	<path style="fill:#57565C;" d="M385.155,151.875l-26.102-34.122c-2.935-3.836-7.489-6.087-12.319-6.087H165.266
		c-4.831,0-9.385,2.251-12.319,6.087l-26.102,34.122c-3.585,4.687-4.2,11.004-1.586,16.294s8.004,8.639,13.906,8.639h233.671
		c5.902,0,11.291-3.349,13.905-8.639C389.355,162.879,388.74,156.562,385.155,151.875z"/>
	<path style="fill:#57565C;" d="M48.55,299.243H21.943C9.874,299.243,0,289.369,0,277.3v-38.262
		c0-12.069,9.874-21.943,21.943-21.943H48.55c12.069,0,21.943,9.874,21.943,21.943V277.3
		C70.493,289.369,60.619,299.243,48.55,299.243z"/>
	<path style="fill:#57565C;" d="M490.057,295.169H463.45c-12.069,0-21.943-9.874-21.943-21.943v-38.262
		c0-12.069,9.874-21.943,21.943-21.943h26.607c12.069,0,21.943,9.874,21.943,21.943v38.262
		C512,285.295,502.126,295.169,490.057,295.169z"/>
</g>
<polygon style="fill:#2D2D30;" points="351.533,363.243 255.997,319.34 160.464,363.243 256,387.359 "/>
<g>
	<path style="fill:#3E3D42;" d="M48.55,217.095H21.943c-2.885,0-5.638,0.578-8.167,1.602c-1.875,8.845-2.868,18.012-2.868,27.407
		c0,14.818,1.471,33.509,6.747,52.71c1.389,0.278,2.821,0.429,4.288,0.429H48.55c12.069,0,21.943-9.874,21.943-21.943v-38.262
		C70.493,226.97,60.619,217.095,48.55,217.095z"/>
	<path style="fill:#3E3D42;" d="M463.45,213.021h26.607c2.885,0,5.638,0.578,8.167,1.602c1.875,8.845,2.868,18.012,2.868,27.407
		c0,14.818-1.471,33.509-6.747,52.71c-1.389,0.278-2.821,0.429-4.288,0.429H463.45c-12.069,0-21.943-9.874-21.943-21.943v-38.262
		C441.507,222.896,451.381,213.021,463.45,213.021z"/>
	<path style="fill:#3E3D42;" d="M359.053,117.753c-0.916-1.199-2.005-2.22-3.197-3.09c-11.781,1.069-24.396,3.5-37.151,7.199
		c-17.463,4.558-37.277,6.87-58.894,6.87c-34.464,0-62.214-5.934-67.146-7.054c-12.539-3.597-24.934-5.964-36.52-7.015
		c-1.192,0.868-2.28,1.891-3.197,3.09l-26.102,34.122c-3.585,4.687-4.2,11.003-1.586,16.294c2.614,5.291,8.004,8.639,13.906,8.639
		h233.671c5.901,0,11.291-3.349,13.905-8.639c2.614-5.29,1.999-11.607-1.586-16.294L359.053,117.753z"/>
</g>
<path style="fill:#787680;" d="M369.025,373.312c-38.456,0-82.242-25.481-108.052-47.302c-1.739-1.47-3.175-2.121-4.257-2.216
	c-3.067-0.269-6.754,3.147-6.754,3.147c-33.021,28.168-75.015,46.37-106.985,46.37c-49.608,0-76.133-24.438-89.649-44.939
	c-17.786-26.978-21.52-59.628-21.52-82.268c0-61.299,49.871-111.17,111.17-111.17c13.318,0,28.672,2.414,44.446,6.982
	c3.865,0.902,34.337,7.714,72.389,7.714c23.515,0,45.2-2.565,64.458-7.624c15.882-4.628,31.35-7.073,44.756-7.073
	c61.299,0,111.17,49.871,111.17,111.17c0,22.64-3.733,55.29-21.52,82.268C445.158,348.873,418.632,373.312,369.025,373.312z"/>
<g>
	<path style="fill:#57565C;" d="M92.547,329.722c-17.786-26.978-21.52-59.628-21.52-82.268c0-56.298,42.068-102.951,96.419-110.189
		c-8.614-1.52-16.879-2.33-24.469-2.33c-61.299,0-111.17,49.871-111.17,111.17c0,22.64,3.733,55.29,21.52,82.268
		c13.517,20.501,40.042,44.939,89.649,44.939c4.408,0,9.011-0.358,13.751-1.028C123.126,365.66,103.536,346.39,92.547,329.722z"/>
	<path style="fill:#57565C;" d="M387.663,164.114c-1.079,0-2.191,0.038-3.306,0.078c38.701,7.201,68.009,41.123,68.009,81.912
		c0,44.935-16.546,96.838-78.726,99.282c4.904,0.941,9.612,1.452,14.023,1.452c65.991,0,83.343-53.352,83.343-99.381
		S433.693,164.114,387.663,164.114z"/>
</g>
<path style="fill:#C2DFF6;" d="M369.025,162.761c-11.049,0-24,2.155-37.305,6.059c-73.456,19.434-151.439,0-151.439,0
	c-13.304-3.904-26.256-6.059-37.305-6.059c-46.029,0-83.343,37.314-83.343,83.343s17.353,99.381,83.343,99.381
	c25.832,0,62.102-16.832,88.926-39.713c0,0,22.957-21.368,47.036-1.011c27.252,23.04,63.866,40.725,90.086,40.725
	c65.991,0,83.343-53.353,83.343-99.381C452.368,200.075,415.053,162.761,369.025,162.761z"/>
<g>
	<path style="fill:#96C8EF;" d="M87.459,250.151c0-46.029,37.314-83.343,83.343-83.343c0.704,0,1.437,0.033,2.156,0.051
		c-10.696-2.645-20.975-4.098-29.981-4.098c-46.029,0-83.343,37.314-83.343,83.343c0,45.821,17.203,98.89,82.456,99.37
		C99.587,332.193,87.459,288.619,87.459,250.151z"/>
	<path style="fill:#96C8EF;" d="M274.639,301.549c1.426,0.932,2.861,1.995,4.299,3.211c27.252,23.04,63.866,40.725,90.086,40.725
		c1.057,0,2.102-0.015,3.135-0.042c-21.785-6.515-45.968-20.212-65.395-36.636C294.917,298.791,283.343,298.877,274.639,301.549z"/>
	<path style="fill:#96C8EF;" d="M305.747,290.969c-3.192-2.923-3.06-8.023,0-11.082l42.971-42.972c3.062-3.061,8.023-3.061,11.083,0
		c3.06,3.061,3.06,8.023,0,11.082l-42.971,42.972C315.3,292.499,310.335,295.169,305.747,290.969z"/>
	<path style="fill:#96C8EF;" d="M369.093,227.621c-3.129-2.99-3.06-8.023,0.001-11.082l17.143-17.143
		c3.061-3.059,8.023-3.061,11.082,0c3.059,3.061,3.06,8.023-0.001,11.082l-17.143,17.143
		C378.647,229.151,373.642,231.966,369.093,227.621z"/>
	<path style="fill:#96C8EF;" d="M290.341,237.996c-3.088-3.032-3.06-8.023,0-11.082l27.516-27.516c3.062-3.061,8.023-3.061,11.083,0
		s3.06,8.023,0,11.082l-27.516,27.516C299.894,239.526,294.487,242.067,290.341,237.996z"/>
</g>
<path style="fill:#57565C;" d="M295.22,377.41c0,21.663-17.561,22.923-39.223,22.923s-39.223-1.26-39.223-22.923
	c0-21.663,17.561-81.196,39.223-81.196S295.22,355.747,295.22,377.41z"/>
<path style="fill:#3E3D42;" d="M241.685,377.41c0-17.309,11.212-58.789,26.767-74.767c-3.913-4.02-8.101-6.428-12.456-6.428
	c-21.663,0-39.223,59.533-39.223,81.196s17.561,22.923,39.223,22.923c4.356,0,8.541-0.054,12.456-0.312
	C252.899,398.996,241.685,394.716,241.685,377.41z"/>
<g>
</g>
<g>
</g>
<g>
</g>
<g>
</g>
<g>
</g>
<g>
</g>
<g>
</g>
<g>
</g>
<g>
</g>
<g>
</g>
<g>
</g>
<g>
</g>
<g>
</g>
<g>
</g>
<g>
</g>
</svg>
