<?xml version="1.0" encoding="iso-8859-1"?>
<!-- Generator: Adobe Illustrator 19.0.0, SVG Export Plug-In . SVG Version: 6.00 Build 0)  -->
<svg version="1.1" id="Layer_1" xmlns="http://www.w3.org/2000/svg" xmlns:xlink="http://www.w3.org/1999/xlink" x="0px" y="0px"
	 viewBox="0 0 512 512" style="enable-background:new 0 0 512 512;" xml:space="preserve">
<g>
	<circle style="fill:#FF728B;" cx="95.681" cy="327.053" r="12.887"/>
	<circle style="fill:#FF728B;" cx="111.7" cy="357.7" r="12.887"/>
	<circle style="fill:#FF728B;" cx="137.477" cy="379.998" r="12.887"/>
	<circle style="fill:#FF728B;" cx="169.524" cy="392.882" r="12.887"/>
	<circle style="fill:#FF728B;" cx="416.12" cy="327.053" r="12.887"/>
	<circle style="fill:#FF728B;" cx="400.091" cy="357.7" r="12.887"/>
	<circle style="fill:#FF728B;" cx="374.324" cy="379.998" r="12.887"/>
	<circle style="fill:#FF728B;" cx="342.277" cy="392.882" r="12.887"/>
</g>
<g>
	<circle style="fill:#FFA5B5;" cx="47.323" cy="398.106" r="12.887"/>
	<circle style="fill:#FFA5B5;" cx="63.342" cy="428.753" r="12.887"/>
	<circle style="fill:#FFA5B5;" cx="89.119" cy="451.051" r="12.887"/>
	<circle style="fill:#FFA5B5;" cx="121.156" cy="463.935" r="12.887"/>
	<circle style="fill:#FFA5B5;" cx="157.382" cy="462.89" r="12.887"/>
	<circle style="fill:#FFA5B5;" cx="190.015" cy="448.961" r="12.887"/>
	<circle style="fill:#FFA5B5;" cx="464.677" cy="398.106" r="12.887"/>
	<circle style="fill:#FFA5B5;" cx="448.658" cy="428.753" r="12.887"/>
	<circle style="fill:#FFA5B5;" cx="422.881" cy="451.051" r="12.887"/>
	<circle style="fill:#FFA5B5;" cx="390.844" cy="463.935" r="12.887"/>
	<circle style="fill:#FFA5B5;" cx="354.617" cy="462.89" r="12.887"/>
	<circle style="fill:#FFA5B5;" cx="321.985" cy="448.961" r="12.887"/>
</g>
<path style="fill:#A258CD;" d="M395.26,275.265c-13.689,0-24.786,11.097-24.786,24.786c0,24.748-20.135,44.884-44.884,44.884
	c-24.748,0-44.884-20.135-44.884-44.884V171.704c0-13.689-11.097-24.786-24.786-24.786c-0.106,0-0.21,0.006-0.316,0.008
	c-0.106-0.001-0.209-0.008-0.316-0.008c-13.689,0-24.786,11.097-24.786,24.786V300.05c0,24.748-20.135,44.884-44.884,44.884
	s-44.884-20.135-44.884-44.884c0-13.689-11.097-24.786-24.786-24.786s-24.786,11.097-24.786,24.786
	c0,52.083,42.373,94.456,94.456,94.456c27.721,0,52.69-12.005,69.985-31.088c17.294,19.083,42.264,31.088,69.985,31.088
	c52.083,0,94.456-42.373,94.456-94.456C420.046,286.362,408.948,275.265,395.26,275.265z"/>
<path style="fill:#933EC5;" d="M358.276,388.673c-4.816-4.39-7.843-10.71-7.843-17.726v-33.538
	c-7.119,4.749-15.661,7.525-24.842,7.525c-24.748,0-44.884-20.135-44.884-44.884V171.704c0-13.689-11.097-24.786-24.786-24.786
	c-0.106,0-0.21,0.006-0.316,0.008c-0.106-0.001-0.209-0.008-0.316-0.008c-13.689,0-24.786,11.097-24.786,24.786V300.05
	c0,24.748-20.135,44.884-44.884,44.884c-9.18,0-17.724-2.775-24.841-7.524v33.538c0,7.014-3.027,13.335-7.843,17.726
	c10.19,3.77,21.201,5.833,32.685,5.833c27.721,0,52.69-12.005,69.985-31.088c17.294,19.083,42.264,31.088,69.985,31.088
	C337.075,394.505,348.085,392.443,358.276,388.673z"/>
<path style="fill:#B87FD9;" d="M444.088,346.162c-13.689,0-24.786,11.097-24.786,24.786c0,24.749-20.135,44.884-44.884,44.884
	c-24.748,0-44.884-20.135-44.884-44.884v-93.824c39.478-26.488,65.745-73.551,65.745-127.206C395.28,67.12,332.745,0,255.605,0
	S115.93,67.12,115.93,149.917c0,53.656,26.267,100.718,65.746,127.206v93.823c0,24.749-20.135,44.884-44.885,44.884
	c-24.748,0-44.884-20.135-44.884-44.884c0-13.689-11.097-24.786-24.786-24.786s-24.786,11.097-24.786,24.786
	c0,52.083,42.373,94.456,94.456,94.456c49.058,0,89.494-37.595,94.027-85.486v107.298c0,13.689,11.097,24.786,24.786,24.786
	s24.786-11.097,24.786-24.786V379.91c4.53,47.894,44.967,85.492,94.027,85.492c52.083,0,94.456-42.373,94.456-94.456
	C468.874,357.259,457.777,346.162,444.088,346.162z"/>
<path style="fill:#A258CD;" d="M203.046,267.513l0.01-0.013c-32.317-27.457-53.065-69.913-53.065-117.588
	c0-76.614,53.546-139.796,122.66-148.807C267.079,0.381,261.41,0,255.657,0c-77.14,0-139.675,67.12-139.675,149.917
	c0,53.656,26.267,100.718,65.746,127.206v93.823c0,18.098-10.773,33.717-26.237,40.811c-0.507,0.264-1.031,0.513-1.582,0.739
	c5.232,2.141,10.949,3.331,16.942,3.331c24.749,0,44.885-20.135,44.885-44.884v-79.155
	C215.736,277.159,203.046,267.513,203.046,267.513z"/>
<g>
	<path style="fill:#FFE477;" d="M247.768,112.814c-2.069,0-4.086-0.836-5.538-2.299c-1.463-1.452-2.299-3.48-2.299-5.538
		s0.836-4.086,2.299-5.538c1.452-1.463,3.468-2.299,5.538-2.299c2.068,0,4.086,0.836,5.538,2.299
		c1.463,1.452,2.299,3.48,2.299,5.538s-0.836,4.086-2.299,5.538C251.854,111.979,249.837,112.814,247.768,112.814z"/>
	<path style="fill:#FFE477;" d="M271.278,142.942c-2.069,0-4.086-0.836-5.538-2.299c-1.463-1.452-2.299-3.48-2.299-5.538
		c0-2.058,0.836-4.086,2.299-5.538c1.452-1.463,3.468-2.299,5.538-2.299c2.068,0,4.086,0.836,5.538,2.299
		c1.463,1.452,2.299,3.48,2.299,5.538c0,2.058-0.836,4.086-2.299,5.538C275.364,142.106,273.347,142.942,271.278,142.942z"/>
</g>
<g>
	<path style="fill:#A258CD;" d="M235.555,337.677c-2.069,0-4.086-0.836-5.538-2.299c-1.463-1.452-2.299-3.479-2.299-5.538
		s0.836-4.086,2.299-5.538c1.452-1.463,3.468-2.299,5.538-2.299c2.068,0,4.086,0.836,5.538,2.299
		c1.463,1.452,2.299,3.479,2.299,5.538s-0.836,4.086-2.299,5.538C239.641,336.84,237.624,337.677,235.555,337.677z"/>
	<path style="fill:#A258CD;" d="M271.278,322.003c-2.069,0-4.086-0.836-5.538-2.299c-1.463-1.452-2.299-3.479-2.299-5.538
		c0-2.058,0.836-4.086,2.299-5.538c1.452-1.463,3.468-2.299,5.538-2.299c2.068,0,4.086,0.836,5.538,2.299
		c1.463,1.452,2.299,3.479,2.299,5.538c0,2.058-0.836,4.086-2.299,5.538C275.364,321.166,273.347,322.003,271.278,322.003z"/>
	<path style="fill:#A258CD;" d="M309.099,367.107c-2.069,0-4.086-0.836-5.538-2.299c-1.463-1.452-2.299-3.479-2.299-5.538
		c0-2.058,0.836-4.086,2.299-5.538c1.452-1.463,3.468-2.299,5.538-2.299c2.068,0,4.086,0.836,5.538,2.299
		c1.463,1.452,2.299,3.479,2.299,5.538c0,2.058-0.836,4.086-2.299,5.538C313.184,366.271,311.166,367.107,309.099,367.107z"/>
	<path style="fill:#A258CD;" d="M255.602,378.428c-2.069,0-4.086-0.836-5.538-2.299c-1.463-1.452-2.299-3.479-2.299-5.538
		c0-2.058,0.836-4.086,2.299-5.538c1.452-1.463,3.468-2.299,5.538-2.299c2.068,0,4.086,0.836,5.538,2.299
		c1.463,1.452,2.299,3.479,2.299,5.538c0,2.058-0.836,4.086-2.299,5.538C259.687,377.591,257.67,378.428,255.602,378.428z"/>
</g>
<path style="fill:#FFE477;" d="M296.181,112.814c-2.069,0-4.086-0.836-5.538-2.299c-1.463-1.452-2.299-3.48-2.299-5.538
	s0.836-4.086,2.299-5.538c1.452-1.463,3.468-2.299,5.538-2.299c2.068,0,4.086,0.836,5.538,2.299c1.463,1.452,2.299,3.48,2.299,5.538
	s-0.836,4.086-2.299,5.538C300.268,111.979,298.25,112.814,296.181,112.814z"/>
<circle style="fill:#A258CD;" cx="188.207" cy="198.332" r="39.513"/>
<path style="fill:#933EC5;" d="M148.694,198.306c0,16.621,10.268,30.836,24.803,36.672c0.533,0.187,1.063,0.372,1.584,0.556
	c-10.59-16.272-18.255-34.897-22.157-55.01C150.225,185.871,148.694,191.908,148.694,198.306z"/>
<circle style="fill:#A258CD;" cx="322.999" cy="195.553" r="39.513"/>
<circle style="fill:#FFE477;" cx="177.476" cy="188.322" r="29.497"/>
<path style="fill:#3E3D42;" d="M187.925,196.157h-20.898c-4.328,0-7.837-3.509-7.837-7.837c0-4.328,3.509-7.837,7.837-7.837h20.898
	c4.328,0,7.837,3.509,7.837,7.837C195.762,192.648,192.253,196.157,187.925,196.157z"/>
<circle style="fill:#FFE477;" cx="333.51" cy="188.322" r="29.497"/>
<path style="fill:#3E3D42;" d="M343.964,196.157h-20.898c-4.328,0-7.837-3.509-7.837-7.837c0-4.328,3.509-7.837,7.837-7.837h20.898
	c4.328,0,7.837,3.509,7.837,7.837C351.8,192.648,348.292,196.157,343.964,196.157z"/>
<g>
	<path style="fill:#A258CD;" d="M318.955,64.034c-17.855-16.026-40.353-24.851-63.35-24.851c-4.328,0-7.837-3.509-7.837-7.837
		s3.509-7.837,7.837-7.837c26.867,0,53.084,10.249,73.819,28.86c3.221,2.891,3.553,7.905,0.598,11.067
		C325.439,68.339,320.451,65.377,318.955,64.034z"/>
	<path style="fill:#A258CD;" d="M342.316,94.013c-2.453-4.601-5.238-9.05-8.275-13.225c-2.546-3.499-1.773-8.401,1.727-10.947
		c3.499-2.546,8.402-1.772,10.947,1.727c3.463,4.761,6.636,9.83,9.43,15.07c2.037,3.819,0.657,8.695-3.227,10.603
		C347.73,99.788,343.726,96.657,342.316,94.013z"/>
	<path style="fill:#A258CD;" d="M255.254,436.593c-2.069,0-4.086-0.836-5.538-2.299c-1.463-1.452-2.299-3.479-2.299-5.538
		s0.836-4.086,2.299-5.538c1.452-1.463,3.468-2.299,5.538-2.299c2.068,0,4.086,0.836,5.538,2.299
		c1.463,1.452,2.299,3.479,2.299,5.538s-0.836,4.086-2.299,5.538C259.339,435.757,257.322,436.593,255.254,436.593z"/>
</g>
<g>
</g>
<g>
</g>
<g>
</g>
<g>
</g>
<g>
</g>
<g>
</g>
<g>
</g>
<g>
</g>
<g>
</g>
<g>
</g>
<g>
</g>
<g>
</g>
<g>
</g>
<g>
</g>
<g>
</g>
</svg>
