<?xml version="1.0" encoding="iso-8859-1"?>
<!-- Generator: Adobe Illustrator 19.0.0, SVG Export Plug-In . SVG Version: 6.00 Build 0)  -->
<svg version="1.1" id="Layer_1" xmlns="http://www.w3.org/2000/svg" xmlns:xlink="http://www.w3.org/1999/xlink" x="0px" y="0px"
	 viewBox="0 0 511.998 511.998" style="enable-background:new 0 0 511.998 511.998;" xml:space="preserve">
<path style="fill:#85BB04;" d="M493.73,291.193c-13.305-12.085-33.886-11.098-45.972,2.208
	c-18.849,20.751-22.96,38.089-25.961,50.748c-2.225,9.387-3.241,13.671-10.808,22.001c-7.565,8.329-11.732,9.75-20.862,12.866
	c-12.313,4.201-29.177,9.955-48.024,30.705c-7.23,7.96-12.286,15.415-15.949,22.299h137.75c4.199,0,7.604-3.405,7.604-7.604
	c0-4.199-3.405-7.604-7.604-7.604h-11.495c2.221-2.097,4.476-4.381,6.761-6.897c18.849-20.75,22.96-38.088,25.961-50.748
	c2.225-9.387,3.242-13.671,10.808-22.001C508.023,323.861,507.036,303.278,493.73,291.193z"/>
<path style="fill:#79AB03;" d="M473.443,313.002c-18.849,20.751-22.96,38.089-25.961,50.748
	c-2.225,9.387-3.241,13.671-10.808,22.001c-7.565,8.329-11.732,9.75-20.862,12.866c-12.313,4.201-29.177,9.955-48.024,30.705
	c-0.823,0.906-1.61,1.805-2.379,2.697h-39.255c3.662-6.884,8.718-14.339,15.949-22.299c18.848-20.75,35.711-26.503,48.024-30.705
	c9.13-3.115,13.297-4.536,20.862-12.866c7.566-8.33,8.582-12.614,10.808-22.001c3.002-12.659,7.113-29.997,25.961-50.748
	c12.085-13.306,32.668-14.294,45.972-2.208c3.619,3.288,6.32,7.208,8.102,11.435C491.605,301.274,480.905,304.787,473.443,313.002z"
	/>
<path style="fill:#9CDD05;" d="M449.618,261.538c0.364,13.005,0.863,30.817-11.997,55.726
	c-12.86,24.908-27.669,34.816-38.483,42.051c-8.018,5.363-11.678,7.812-16.839,17.81c-5.163,10-5.04,14.401-4.769,24.045
	c0.229,8.188,0.508,18.282-2.522,30.851h-70.154c0.92-1.435,1.853-3.069,2.842-4.985c5.163-10,5.039-14.401,4.769-24.045
	c-0.364-13.006-0.863-30.817,11.997-55.726c12.859-24.908,27.669-34.816,38.483-42.051c8.018-5.363,11.677-7.812,16.839-17.81
	c5.163-10,5.039-14.401,4.769-24.044c-0.364-13.006-0.863-30.817,11.997-55.727c8.246-15.97,27.876-22.234,43.848-13.988
	c15.971,8.246,22.234,27.877,13.988,43.848C449.224,247.493,449.347,251.894,449.618,261.538z"/>
<g>
	<path style="fill:#85BB04;" d="M422.542,223.855c-12.86,24.908-12.362,42.721-11.997,55.727c0.27,9.643,0.393,14.044-4.769,24.044
		c-5.163,9.999-8.822,12.447-16.839,17.81c-10.814,7.234-25.624,17.141-38.483,42.051c-12.86,24.908-12.362,42.72-11.997,55.726
		c0.146,5.236,0.242,8.927-0.52,12.807h-33.083c0.92-1.435,1.853-3.069,2.842-4.985c5.163-10,5.039-14.401,4.769-24.045
		c-0.364-13.006-0.863-30.817,11.997-55.726c12.859-24.908,27.669-34.816,38.483-42.051c8.018-5.363,11.677-7.812,16.839-17.81
		s5.039-14.401,4.769-24.044c-0.364-13.006-0.863-30.817,11.997-55.727c8.246-15.97,27.876-22.234,43.848-13.988
		c5.762,2.975,10.251,7.435,13.26,12.667C441.115,205.47,428.677,211.972,422.542,223.855z"/>
	<path style="fill:#85BB04;" d="M169.896,409.72c-18.848-20.75-35.711-26.503-48.024-30.705c-9.13-3.115-13.297-4.536-20.862-12.866
		c-7.566-8.33-8.582-12.614-10.808-22.001c-3.002-12.659-7.113-29.997-25.961-50.748c-12.085-13.306-32.667-14.294-45.972-2.208
		c-13.305,12.085-14.293,32.668-2.208,45.972c7.566,8.33,8.582,12.614,10.808,22.001c3.002,12.66,7.113,29.998,25.961,50.748
		c2.285,2.515,4.539,4.801,6.761,6.897H48.094c-4.199,0-7.604,3.405-7.604,7.604c0,4.199,3.405,7.604,7.604,7.604h137.75
		C182.182,425.135,177.126,417.68,169.896,409.72z"/>
</g>
<path style="fill:#79AB03;" d="M38.555,313.002c18.849,20.751,22.96,38.089,25.961,50.748c2.225,9.387,3.241,13.671,10.808,22.001
	c7.565,8.329,11.732,9.75,20.862,12.866c12.313,4.201,29.177,9.955,48.024,30.705c0.823,0.906,1.61,1.805,2.378,2.697h39.255
	c-3.662-6.884-8.718-14.339-15.949-22.299c-18.848-20.75-35.711-26.503-48.024-30.705c-9.13-3.115-13.297-4.536-20.862-12.866
	c-7.566-8.33-8.582-12.614-10.808-22.001c-3.002-12.659-7.113-29.997-25.961-50.748c-12.085-13.306-32.667-14.294-45.972-2.208
	c-3.619,3.288-6.32,7.208-8.102,11.435C20.392,301.274,31.093,304.787,38.555,313.002z"/>
<path style="fill:#9CDD05;" d="M62.379,261.538c-0.364,13.005-0.863,30.817,11.997,55.726c12.86,24.908,27.669,34.816,38.483,42.051
	c8.018,5.363,11.678,7.812,16.839,17.81c5.163,10,5.04,14.401,4.769,24.045c-0.229,8.188-0.508,18.282,2.522,30.851h70.154
	c-0.92-1.435-1.853-3.069-2.842-4.985c-5.163-10-5.039-14.401-4.769-24.045c0.364-13.006,0.863-30.817-11.997-55.726
	c-12.859-24.908-27.669-34.816-38.483-42.051c-8.018-5.363-11.677-7.812-16.839-17.81c-5.163-10-5.039-14.401-4.769-24.044
	c0.364-13.006,0.863-30.817-11.997-55.727c-8.246-15.97-27.876-22.234-43.848-13.988c-15.971,8.246-22.234,27.877-13.988,43.848
	C62.773,247.493,62.65,251.894,62.379,261.538z"/>
<path style="fill:#85BB04;" d="M89.455,223.855c12.86,24.908,12.362,42.721,11.997,55.727c-0.27,9.643-0.393,14.044,4.769,24.044
	c5.163,9.999,8.822,12.447,16.839,17.81c10.814,7.234,25.624,17.141,38.483,42.051c12.86,24.908,12.362,42.72,11.997,55.726
	c-0.146,5.236-0.242,8.927,0.52,12.807h33.083c-0.92-1.435-1.853-3.069-2.842-4.985c-5.163-10-5.039-14.401-4.769-24.045
	c0.364-13.006,0.863-30.817-11.997-55.726c-12.859-24.908-27.669-34.816-38.483-42.051c-8.018-5.363-11.677-7.812-16.839-17.81
	c-5.163-9.999-5.039-14.401-4.769-24.044c0.364-13.006,0.863-30.817-11.997-55.727c-8.246-15.97-27.876-22.234-43.848-13.988
	c-5.762,2.975-10.251,7.435-13.26,12.667C70.881,205.47,83.319,211.972,89.455,223.855z"/>
<path style="fill:#B2FA09;" d="M161.252,294.043c6.446,7.176,9.388,10.452,11.923,21.416s1.329,15.2-1.312,24.478
	c-3.563,12.513-8.441,29.651-2.127,56.963c3.626,15.68,9.094,26.722,14.739,35.12h80.19c-6.146-13.395-13.623-21.722-19.589-28.364
	c-6.446-7.177-9.388-10.454-11.924-21.419c-2.536-10.965-1.329-15.2,1.312-24.478c3.563-12.513,8.441-29.65,2.127-56.963
	c-6.314-27.312-18.221-40.568-26.915-50.248c-6.446-7.176-9.388-10.452-11.923-21.415c-2.536-10.964-1.329-15.199,1.313-24.477
	c3.563-12.513,8.441-29.651,2.127-56.963c-4.049-17.512-21.529-28.425-39.04-24.377c-17.512,4.049-28.426,21.527-24.377,39.04
	c2.536,10.964,1.329,15.199-1.312,24.477c-3.564,12.513-8.442,29.651-2.128,56.963C140.651,271.107,152.558,284.364,161.252,294.043
	z"/>
<path style="fill:#9CDD05;" d="M245.075,403.655c-6.446-7.177-9.388-10.454-11.924-21.419c-2.535-10.965-1.329-15.2,1.312-24.478
	c3.563-12.513,8.441-29.65,2.127-56.963c-6.314-27.312-18.221-40.568-26.915-50.248c-6.446-7.176-9.388-10.452-11.923-21.415
	c-2.535-10.964-1.329-15.199,1.313-24.477c3.563-12.513,8.441-29.651,2.127-56.964c-4.049-17.512-21.529-28.425-39.04-24.377
	c-3.071,0.71-5.933,1.84-8.553,3.304c7.728,4.324,13.673,11.767,15.824,21.073c6.314,27.312,1.436,44.45-2.127,56.964
	c-2.642,9.278-3.848,13.513-1.313,24.477c2.535,10.963,5.477,14.239,11.923,21.415c8.694,9.679,20.601,22.936,26.915,50.248
	c6.314,27.312,1.436,44.45-2.127,56.963c-2.642,9.279-3.848,13.513-1.312,24.478c2.535,10.965,5.477,14.241,11.924,21.419
	c5.966,6.642,13.443,14.969,19.589,28.364h31.767C258.518,418.624,251.041,410.296,245.075,403.655z"/>
<path style="fill:#B2FA09;" d="M350.746,294.043c-6.446,7.176-9.388,10.452-11.923,21.416c-2.536,10.964-1.329,15.2,1.312,24.478
	c3.563,12.513,8.441,29.651,2.127,56.963c-3.626,15.68-9.094,26.722-14.739,35.12h-80.19c6.146-13.395,13.623-21.722,19.589-28.364
	c6.446-7.177,9.388-10.454,11.924-21.419c2.536-10.965,1.329-15.2-1.312-24.478c-3.563-12.513-8.441-29.65-2.127-56.963
	c6.314-27.312,18.221-40.568,26.915-50.248c6.446-7.176,9.388-10.452,11.923-21.415c2.536-10.964,1.329-15.199-1.313-24.477
	c-3.563-12.513-8.441-29.651-2.127-56.963c4.049-17.512,21.529-28.425,39.04-24.377c17.512,4.049,28.426,21.527,24.377,39.04
	c-2.536,10.964-1.329,15.199,1.312,24.477c3.564,12.513,8.442,29.651,2.128,56.963C371.346,271.107,359.439,284.364,350.746,294.043
	z"/>
<path style="fill:#9CDD05;" d="M266.922,403.655c6.446-7.177,9.388-10.454,11.924-21.419c2.535-10.965,1.329-15.2-1.312-24.478
	c-3.563-12.513-8.441-29.65-2.127-56.963c6.314-27.312,18.221-40.568,26.915-50.248c6.446-7.176,9.388-10.452,11.923-21.415
	c2.535-10.964,1.329-15.199-1.313-24.477c-3.563-12.513-8.441-29.651-2.127-56.964c4.049-17.512,21.529-28.425,39.04-24.377
	c3.071,0.71,5.933,1.84,8.553,3.304c-7.728,4.324-13.673,11.767-15.824,21.073c-6.314,27.312-1.436,44.45,2.127,56.964
	c2.642,9.278,3.848,13.513,1.313,24.477c-2.535,10.963-5.477,14.239-11.923,21.415c-8.694,9.679-20.601,22.936-26.915,50.248
	c-6.314,27.312-1.436,44.45,2.127,56.963c2.642,9.279,3.848,13.513,1.312,24.478c-2.535,10.965-5.477,14.241-11.924,21.419
	c-5.966,6.642-13.443,14.969-19.589,28.364h-31.767C253.479,418.624,260.956,410.297,266.922,403.655z"/>
<path style="fill:#C2FB3B;" d="M213.681,355.84c0,28.033,8.614,43.631,14.904,55.021c4.315,7.814,6.456,11.709,6.753,21.158h65.107
	c-0.474-26.532-8.773-41.564-14.88-52.624c-4.664-8.445-6.793-12.3-6.793-23.554s2.128-15.109,6.793-23.553
	c6.29-11.389,14.905-26.987,14.905-55.02c0-28.032-8.615-43.629-14.905-55.019c-4.664-8.444-6.793-12.298-6.793-23.551
	c0-11.254,2.128-15.107,6.793-23.552c6.29-11.389,14.905-26.987,14.905-55.02c0-17.974-14.571-32.545-32.545-32.545
	s-32.545,14.571-32.545,32.545c0,11.253-2.128,15.107-6.793,23.552c-6.29,11.389-14.905,26.987-14.905,55.02
	c0,28.032,8.615,43.63,14.905,55.019c4.664,8.444,6.793,12.298,6.793,23.55c0,11.254-2.128,15.109-6.793,23.553
	C222.295,312.209,213.681,327.807,213.681,355.84z"/>
<path style="fill:#B2FA09;" d="M262.042,410.857c-6.29-11.389-14.904-26.988-14.904-55.021c0-28.033,8.614-43.63,14.905-55.02
	c4.664-8.444,6.793-12.299,6.793-23.553c0-11.252-2.128-15.106-6.793-23.55c-6.29-11.389-14.905-26.987-14.905-55.019
	c0-28.033,8.615-43.63,14.905-55.02c4.664-8.444,6.793-12.299,6.793-23.552c0-11.855,6.341-22.226,15.813-27.916
	c-4.889-2.935-10.609-4.625-16.726-4.625c-17.974,0-32.545,14.571-32.545,32.545c0,11.253-2.128,15.107-6.793,23.552
	c-6.29,11.389-14.905,26.987-14.905,55.02c0,28.032,8.615,43.63,14.905,55.019c4.664,8.444,6.793,12.298,6.793,23.55
	c0,11.254-2.128,15.109-6.793,23.553c-6.29,11.39-14.905,26.987-14.905,55.02c0,28.033,8.614,43.631,14.904,55.021
	c4.315,7.814,6.456,11.709,6.753,21.158l33.457-0.003C268.498,422.566,266.357,418.671,262.042,410.857z"/>
<path d="M23.761,416.811h-7.435c-4.199,0-7.604,3.405-7.604,7.604c0,4.199,3.405,7.604,7.604,7.604h7.435
	c4.199,0,7.604-3.405,7.604-7.604C31.365,420.216,27.961,416.811,23.761,416.811z"/>
<path d="M495.67,416.811h-7.435c-4.199,0-7.604,3.405-7.604,7.604c0,4.199,3.405,7.604,7.604,7.604h7.435
	c4.199,0,7.604-3.405,7.604-7.604C503.274,420.216,499.871,416.811,495.67,416.811z"/>
<path d="M214.589,372.835c4.188-0.312,7.329-3.96,7.017-8.148c-0.212-2.852-0.32-5.829-0.32-8.848c0-4.199-3.405-7.604-7.604-7.604
	c-4.199,0-7.604,3.405-7.604,7.604c0,3.394,0.102,6.753,0.363,9.978C207.144,374.535,214.396,372.849,214.589,372.835z"/>
<path d="M463.903,416.811h-0.666c0.05-0.057,20.203-15.239,29.292-55.89c2.027-9.063,2.789-11.764,9.038-18.643
	c7.211-7.939,10.898-18.209,10.384-28.921c-0.514-10.712-5.17-20.582-13.108-27.792c-7.938-7.211-18.205-10.903-28.92-10.385
	c-4.499,0.216-8.845,1.171-12.911,2.784c0.491-6.413,0.339-11.959,0.208-16.642c-0.26-9.282-0.338-12.083,3.925-20.34
	c4.92-9.529,5.835-20.404,2.576-30.621c-3.26-10.217-10.303-18.553-19.831-23.472c-19.672-10.158-43.938-2.415-54.093,17.256
	c-0.717,1.389-1.386,2.754-2.028,4.105c-0.986-9.668-3.17-17.356-4.92-23.502c-2.543-8.931-3.31-11.626-1.217-20.68
	c4.986-21.569-8.504-43.174-30.073-48.16c-18.052-4.171-36.126,4.605-44.464,20.223c0.62-4.895,0.979-10.21,0.979-16.005
	c0-22.138-18.011-40.149-40.149-40.149s-40.149,18.011-40.149,40.149c0,9.294-1.355,11.747-5.845,19.877
	c-3.241,5.869-7.331,13.286-10.545,23.167c-0.473-5.297-1.354-11.013-2.782-17.19c-4.987-21.568-26.592-35.057-48.16-30.072
	c-21.569,4.986-35.059,26.591-30.073,48.16c2.093,9.054,1.326,11.749-1.218,20.681c-1.75,6.145-3.934,13.832-4.92,23.5
	c-0.642-1.351-1.311-2.716-2.028-4.105c-10.157-19.671-34.422-27.411-54.093-17.256c-9.529,4.92-16.573,13.256-19.832,23.473
	c-3.259,10.218-2.345,21.091,2.576,30.621c4.262,8.257,4.184,11.058,3.925,20.343c-0.131,4.682-0.283,10.228,0.207,16.639
	c-4.067-1.613-8.413-2.568-12.911-2.784c-10.72-0.521-20.983,3.173-28.92,10.384c-7.939,7.211-12.594,17.08-13.108,27.793
	s3.173,20.983,10.384,28.92c6.248,6.88,6.497,9.711,9.039,18.645c11.898,41.832,28.387,54.821,29.429,55.889h-0.803
	c-4.199,0-7.604,3.405-7.604,7.604c0,4.199,3.405,7.604,7.604,7.604h415.809c4.199,0,7.604-3.405,7.604-7.604
	C471.509,420.216,468.103,416.811,463.903,416.811z M453.387,298.513c4.479-4.931,10.611-7.824,17.265-8.143
	c6.649-0.322,13.034,1.971,17.966,6.451c4.931,4.479,7.823,10.611,8.143,17.265c0.319,6.654-1.971,13.034-6.451,17.967
	c-8.884,9.781-10.106,15.686-12.578,25.361c-8.824,34.527-32.337,56.772-35.702,59.398h-57.043c0.41-6.049,0.27-11.355,0.144-15.856
	c-0.157-5.595-0.24-8.838,0.646-12.338c2.351-0.879,39.536-5.465,44.181-45.895c0.001-0.004,0.001-0.009,0.002-0.013
	c4.897-5.861,9.806-13.025,14.418-21.959c4.131-8.003,6.966-15.377,8.91-22.138C453.32,298.578,453.355,298.549,453.387,298.513z
	 M377.049,269.22c-0.045,5.258-0.765,8.389-4.021,14.694c-4.264,8.258-6.593,9.816-14.313,14.981
	c-1.683,1.125-3.464,2.321-5.318,3.617C354.273,301.496,370.398,283.536,377.049,269.22z M392.155,263.147
	c-0.36-12.857-0.808-28.857,11.152-52.025c6.311-12.22,21.386-17.029,33.604-10.72c5.919,3.056,10.295,8.235,12.319,14.58
	c2.025,6.347,1.457,13.102-1.6,19.022c-6.062,11.74-5.893,17.763-5.614,27.745c0.36,12.857,0.808,28.856-11.152,52.024
	c-11.96,23.167-24.961,32.543-35.955,39.219c-29.075,17.655-25.185,41.077-24.98,48.387c0.129,4.61,0.264,9.703-0.19,15.431h-25.7
	c2.256-5.663,4.125-11.685,5.632-18.2c6.756-29.223,1.353-48.201-2.222-60.759c-0.965-3.39-1.673-5.881-2.067-8.164
	c7.683-8.704,15.162-13.719,21.793-18.154c8.297-5.551,13.305-8.902,19.368-20.643C392.603,279.152,392.433,273.128,392.155,263.147
	z M320.245,202.574c-3.522-12.37-7.905-27.766-2.032-53.168c3.099-13.398,16.52-21.777,29.918-18.682
	c13.398,3.098,21.779,16.519,18.681,29.918c-2.977,12.873-1.327,18.668,1.407,28.272c3.522,12.369,7.906,27.762,2.033,53.168
	c-5.873,25.401-16.569,37.31-25.164,46.879c-6.671,7.427-10.698,11.91-13.674,24.784c-2.977,12.874-1.327,18.669,1.407,28.272
	c3.522,12.37,7.905,27.764,2.032,53.168c-1.849,7.996-4.291,15.107-7.404,21.626h-20.561c-2.715-19.43-9.567-31.854-14.669-41.095
	c-4.489-8.129-5.844-10.583-5.844-19.877c0-9.294,1.354-11.748,5.844-19.876c6.313-11.428,15.853-28.7,15.853-58.696
	c0-7.411-0.584-14.043-1.556-20.004c0.495-0.555,10.315-8.278,15.137-26.417C325.047,218.075,322.979,212.176,320.245,202.574z
	 M300.813,161.127c-2.24,20.856,1.889,35.37,4.806,45.612c2.544,8.931,3.311,11.626,1.218,20.682
	c-1.331,5.759-2.578,8.699-4.903,11.853c-3.067-8.666-6.746-15.33-9.714-20.702c-4.489-8.128-5.844-10.582-5.844-19.875
	c0-9.293,1.355-11.747,5.845-19.876C294.833,174.09,297.999,168.351,300.813,161.127z M206.327,206.922
	c1.072,17.411,5.446,30.029,9.934,39.581c-0.311-0.348-9.006-10.03-11.1-19.082C203.083,218.43,203.827,215.702,206.327,206.922z
	 M143.778,188.912c2.733-9.601,4.384-15.396,1.407-28.269c-3.097-13.399,5.283-26.821,18.681-29.918
	c13.397-3.1,26.82,5.283,29.919,18.681c5.873,25.403,1.49,40.798-2.032,53.168c-2.734,9.602-4.385,15.397-1.407,28.272
	c2.977,12.872,7.003,17.355,13.674,24.783c6.899,7.68,15.476,17.236,21.571,34.466c-0.882,2.009-2.072,4.172-3.66,7.047
	c-4.425,8.013-10.485,18.986-13.651,34.996c-0.815,4.119,1.864,8.12,5.985,8.934c4.121,0.817,8.12-1.864,8.934-5.985
	c2.705-13.684,7.884-23.06,12.045-30.593c4.826-8.739,7.74-14.014,7.74-27.228c0-13.214-2.914-18.488-7.74-27.226
	c-6.218-11.259-13.957-25.27-13.957-51.343c0-26.071,7.739-40.084,13.957-51.344c4.826-8.739,7.74-14.014,7.74-27.228
	c0-13.752,11.189-24.941,24.941-24.941c13.752,0,24.941,11.189,24.941,24.941c0,26.072-7.739,40.085-13.957,51.344
	c-4.826,8.739-7.74,14.014-7.74,27.228c0,13.214,2.914,18.489,7.74,27.227c6.218,11.259,13.957,25.27,13.957,51.343
	c0,26.075-7.739,40.086-13.957,51.344c-4.826,8.739-7.74,14.014-7.74,27.228c0,13.215,2.913,18.489,7.74,27.23
	c4.553,8.244,10.088,18.296,12.597,33.74h-51.434c-1.276-3.186-2.925-6.177-4.83-9.628c-3.486-6.311-7.437-13.465-10.264-23.251
	c-1.165-4.034-5.381-6.36-9.416-5.194c-4.034,1.166-6.36,5.382-5.194,9.416c3.301,11.423,7.881,19.716,11.562,26.382
	c0.449,0.813,0.858,1.557,1.248,2.275h-38.63c-3.114-6.517-5.556-13.629-7.405-21.626c-5.873-25.404-1.49-40.799,2.033-53.17
	c2.733-9.601,4.384-15.397,1.407-28.27c-2.977-12.874-7.003-17.357-13.675-24.784c-8.594-9.569-19.29-21.478-25.163-46.879
	C135.871,216.678,140.255,201.284,143.778,188.912z M155.594,299.124c1.144,1.273,2.138,2.381,3.016,3.4
	c-1.892-1.327-3.683-2.529-5.331-3.631c-7.717-5.163-10.047-6.721-14.312-14.979c-3.254-6.304-3.976-9.436-4.021-14.694
	C141.598,283.536,149.636,292.49,155.594,299.124z M62.767,214.984c2.025-6.347,6.4-11.525,12.319-14.581
	c12.219-6.308,27.293-1.499,33.603,10.72c11.96,23.169,11.512,39.168,11.152,52.029c-0.279,9.978-0.448,16.002,5.614,27.741
	c6.063,11.741,11.07,15.091,19.369,20.643c6.647,4.447,14.119,9.451,21.792,18.148c-0.394,2.284-1.102,4.776-2.068,8.171
	c-3.575,12.558-8.979,31.535-2.222,60.758c1.506,6.514,3.377,12.536,5.633,18.2h-25.7c-0.453-5.728-0.319-10.823-0.191-15.43
	c0.28-9.979,0.448-16.004-5.614-27.745c-6.061-11.74-11.069-15.091-19.368-20.643c-10.69-7.152-23.995-16.051-35.955-39.218
	c-11.96-23.168-11.512-39.167-11.152-52.027c0.279-9.978,0.447-16.002-5.614-27.742C61.311,228.086,60.743,221.33,62.767,214.984z
	 M58.457,404.801c-17.531-19.299-21.224-34.874-24.191-47.389c-2.303-9.715-3.694-15.578-12.578-25.36
	c-4.479-4.931-6.771-11.312-6.451-17.966s3.212-12.786,8.143-17.265s11.303-6.776,17.966-6.45
	c6.654,0.319,12.786,3.211,17.265,8.143c0.031,0.035,0.068,0.065,0.1,0.099c1.944,6.76,4.777,14.134,8.91,22.138
	c4.618,8.945,9.534,16.118,14.437,21.982c0.019,0.094,0.04,0.187,0.054,0.283c6.601,44.192,41.746,44.715,44.11,45.6
	c0.886,3.5,0.803,6.743,0.646,12.339c-0.126,4.497-0.267,9.804,0.143,15.856H73.345C70.124,416.811,62.231,408.958,58.457,404.801z"
	/>
<g>
</g>
<g>
</g>
<g>
</g>
<g>
</g>
<g>
</g>
<g>
</g>
<g>
</g>
<g>
</g>
<g>
</g>
<g>
</g>
<g>
</g>
<g>
</g>
<g>
</g>
<g>
</g>
<g>
</g>
</svg>
