<?xml version="1.0" encoding="iso-8859-1"?>
<!-- Generator: Adobe Illustrator 19.0.0, SVG Export Plug-In . SVG Version: 6.00 Build 0)  -->
<svg version="1.1" id="Layer_1" xmlns="http://www.w3.org/2000/svg" xmlns:xlink="http://www.w3.org/1999/xlink" x="0px" y="0px"
	 viewBox="0 0 512 512" style="enable-background:new 0 0 512 512;" xml:space="preserve">
<path style="fill:#FFB655;" d="M221.046,277.088c0,0-55.934,193.739,6.114,206.502c56.519,11.625,157.556,18.677,262.382-25.442
	c4.586-1.837,8.64-5.119,11.409-9.662c6.789-11.138,3.295-25.66-7.79-32.501c-0.001-0.001-0.003-0.002-0.004-0.003
	c-0.005-0.003-0.012-0.008-0.017-0.011c-0.005-0.003-0.011-0.007-0.017-0.01c-0.005-0.003-0.011-0.007-0.017-0.01
	c-0.007-0.004-0.013-0.008-0.02-0.012c-0.003-0.002-0.006-0.004-0.009-0.005c-0.01-0.006-0.019-0.011-0.028-0.017L253.253,269.762
	C242.303,263.087,228.031,266.334,221.046,277.088z"/>
<path style="fill:#FFA733;" d="M253.253,269.761c-10.95-6.674-25.222-3.427-32.207,7.327c0,0-55.934,193.739,6.114,206.502
	c36.402,7.487,91.283,13.054,153.738,4.297c18.083-11.835,35.559-26.114,52.169-42.723c13.911-13.911,26.18-28.431,36.757-43.404
	L253.253,269.761z"/>
<circle style="fill:#FF9811;" cx="45.11" cy="57.218" r="37.537"/>
<path style="fill:#EE8700;" d="M45.11,57.215c-9.824-9.823-13.055-23.735-9.713-36.258c-6.166,1.646-11.996,4.876-16.833,9.713
	c-14.661,14.661-14.661,38.431,0,53.092s38.431,14.661,53.092,0c4.837-4.837,8.067-10.667,9.713-16.833
	C68.847,70.27,54.935,67.039,45.11,57.215z"/>
<path style="fill:#FFA733;" d="M126.15,33.729c28.864,28.864,20.811,67.608-8.054,96.471s-67.608,36.918-96.471,8.054
	s-7.321-54.118,21.543-82.982S97.286,4.866,126.15,33.729z"/>
<path style="fill:#FF9811;" d="M63.145,96.735C41.66,75.25,48.112,55.763,64.716,35.3c-7.027,5.702-14.169,12.594-21.548,19.972
	c-28.864,28.865-50.407,54.119-21.543,82.983s67.608,20.811,96.471-8.054c7.379-7.379,13.386-15.404,17.776-23.744
	C111.589,119.239,84.63,118.22,63.145,96.735z"/>
<path style="fill:#FFB655;" d="M219.364,56.72c48.255,48.255,34.791,113.029-13.465,161.284s-113.029,61.72-161.284,13.465
	S32.377,140.993,80.632,92.737S171.108,8.465,219.364,56.72z"/>
<path style="fill:#FFA733;" d="M109.278,166.806c-36.834-36.834-24.565-70.151,4.766-105.319
	c-10.906,9.095-21.989,19.829-33.411,31.251C32.377,140.993-3.64,183.213,44.616,231.469
	c48.255,48.255,113.029,34.791,161.284-13.464c11.425-11.425,20.872-23.784,28.039-36.624
	C192.552,204.484,146.107,203.636,109.278,166.806z"/>
<path style="fill:#FFC477;" d="M321.834,98.192c65.098,65.098,46.935,152.479-18.163,217.577s-152.479,83.261-217.577,18.163
	s-16.511-122.055,48.588-187.153S256.736,33.094,321.834,98.192z"/>
<path style="fill:#FFB655;" d="M163.815,256.21c-51.48-51.48-31.857-97.871,10.798-147.221
	c-13.054,11.284-26.315,24.172-39.933,37.79C69.583,211.877,20.995,268.834,86.093,333.933s152.479,46.935,217.577-18.163
	c13.618-13.618,25.172-28.213,34.349-43.373C280.709,307.091,215.296,307.69,163.815,256.21z"/>
<path style="fill:#FFDAAA;" d="M424.384,151.627c78.661,78.661,56.713,184.247-21.947,262.908S218.19,515.144,139.529,436.483
	s-19.95-147.485,58.71-226.146S345.723,72.966,424.384,151.627z"/>
<g>
	<path style="fill:#FFC477;" d="M208.929,350.693c-44.904-44.904-45.029-86.601-22.246-128.753
		c-72.609,73.881-121.94,139.758-47.178,214.52c78.661,78.661,184.247,56.714,262.908-21.947
		c21.127-21.127,38.155-44.197,50.25-68.165C376.616,410.248,281.358,423.123,208.929,350.693z"/>
	<path style="fill:#FFC477;" d="M414.133,198.127c-4.736-6.713-10.333-13.31-16.635-19.613c-2.97-2.97-2.97-7.785,0-10.754
		c2.97-2.97,7.785-2.97,10.754,0c6.913,6.913,13.073,14.179,18.308,21.599c2.421,3.431,1.735,8.375-1.829,10.598
		C419.919,202.958,415.613,200.226,414.133,198.127z"/>
	<path style="fill:#FFC477;" d="M423.007,337.721c-3.897-1.568-5.32-6.412-3.466-10.181c8.12-16.499,13.203-32.971,15.107-48.957
		c2.299-19.294,0.062-37.772-6.649-54.921c-1.53-3.911,0.4-8.323,4.31-9.853c3.913-1.529,8.323,0.401,9.853,4.31
		c7.632,19.507,10.184,40.455,7.587,62.262c-2.108,17.699-7.681,35.825-16.563,53.872
		C431.865,336.944,428.706,340.013,423.007,337.721z"/>
</g>
<path d="M175.8,118.049c3.306-2.925,6.539-5.7,9.611-8.246c3.234-2.68,3.682-7.475,1.001-10.709
	c-2.681-3.234-7.475-3.681-10.709-1.001c-3.197,2.651-6.556,5.532-9.984,8.565c-3.145,2.783-3.489,7.635-0.655,10.735
	C169.129,121.84,174.354,119.33,175.8,118.049z"/>
<path d="M497.185,409.532c-0.007-0.004-0.013-0.008-0.02-0.012c-0.016-0.01-0.032-0.02-0.049-0.03
	c-0.02-0.012-0.041-0.024-0.061-0.038c-0.005-0.003-0.009-0.006-0.014-0.008c-0.013-0.008-0.025-0.015-0.036-0.022l-53.508-32.613
	c20.127-29.89,32.753-61.708,36.46-92.828c6.095-51.171-11.262-98.798-50.196-137.731c-26.544-26.544-53.246-39.447-81.631-39.447
	c-2.723,0-5.434,0.125-8.137,0.356c-3.901-4.919-8.173-9.735-12.782-14.345c-22.055-22.055-44.275-32.859-67.931-33.028
	c-0.184-0.001-0.364-0.002-0.548-0.002c-7.664,0-15.475,1.156-23.498,3.476c-3.173-4.101-6.678-8.103-10.494-11.917
	c-21.735-21.736-44.076-29.233-68.298-22.926c-6.269,1.632-12.428,4.158-18.439,7.305c-1.969-2.54-4.117-5.011-6.475-7.37
	C110.236,7.06,89.914,9.92,71.834,20.837C54.101,7.797,29.007,9.472,13.187,25.292C-2.674,41.154-4.325,66.242,8.765,83.986
	c-2.016,3.3-3.751,6.623-5.081,9.965c-7.013,17.617-2.785,34.331,12.564,49.682c2.36,2.36,4.833,4.509,7.375,6.479
	c-1.608,3.055-3.036,6.116-4.256,9.178c-11.052,27.764-4.552,53.132,19.872,77.556c3.813,3.813,7.8,7.327,11.901,10.501
	c-9.364,32.577,0.368,62.756,29.577,91.963c4.618,4.618,9.445,8.898,14.376,12.806c-2.7,31.325,10.233,60.918,39.059,89.744
	c26.578,26.578,71.65,58.019,182.328,58.019c49.643,0,111.69-7.662,175.955-34.697c6.286-2.533,11.474-6.936,15.011-12.738
	C516.373,437.797,511.77,418.555,497.185,409.532z M23.943,36.047c9.264-9.263,23.318-11.215,34.571-5.598
	c-7.444,6.169-14.388,13.112-20.723,19.446c-6.739,6.738-13.51,13.7-19.402,20.817C12.705,59.443,14.637,45.352,23.943,36.047z
	 M91.47,328.555c-27.733-27.733-34.991-54.865-22.841-85.387c11.951-30.022,41.84-61.422,71.429-91.012
	c7.392-7.392,13.407-13.295,18.931-18.58c3.035-2.904,3.141-7.717,0.238-10.752c-2.905-3.036-7.718-3.142-10.752-0.238
	c-5.607,5.365-11.699,11.343-19.171,18.816c-29.075,29.074-58.463,59.948-72.562,90.911c-2.3-1.953-4.555-4.028-6.748-6.221
	c-20.206-20.206-25.294-39.073-16.495-61.176c8.72-21.906,30.722-45.012,52.512-66.801c2.97-2.97,2.97-7.785,0-10.754
	c-2.97-2.97-7.785-2.97-10.754,0c-15.97,15.97-32.07,32.677-43.677,49.664c-1.563-1.286-3.093-2.665-4.575-4.146
	C5.181,111.056,15.482,93.713,48.546,60.65c33.064-33.064,50.406-43.363,72.226-21.544c1.47,1.47,2.839,2.987,4.116,4.537
	C113.456,51.431,102.725,60.915,93,70.059c-3.06,2.877-3.208,7.69-0.331,10.75c4.31,4.583,9.282,1.712,10.75,0.331
	c42.305-39.779,73.96-55.647,110.566-19.04c2.197,2.197,4.271,4.461,6.228,6.767c-8.432,3.824-17.12,8.856-26.139,15.151
	c-3.444,2.404-4.288,7.144-1.884,10.588c2.405,3.445,7.145,4.288,10.588,1.884c44.008-30.71,78.005-28.594,113.679,7.081
	c2.159,2.159,4.221,4.37,6.215,6.61c-43.327,11.32-84.832,49.803-129.81,94.781c-36.993,36.993-74.417,76.393-90.039,115.638
	c-1.905,4.785-3.454,9.524-4.687,14.224C95.877,332.812,93.646,330.731,91.47,328.555z M203.616,215.714
	c49.38-49.38,97.589-93.702,144.514-93.702c24.147,0,47.33,11.446,70.877,34.992c35.517,35.517,51.372,78.804,45.848,125.177
	c-5.16,43.324-29.202,88.454-67.795,126.977c-82.257,82.107-168.839,66.901-169.073,66.875
	c-30.466-5.134-58.33-20.176-83.081-44.927C72.186,358.385,123.369,295.962,203.616,215.714z M494.458,444.528
	c-1.825,2.994-4.503,5.263-7.744,6.56c-0.042,0.016-0.082,0.033-0.123,0.051c-66.713,28.079-130.947,34.541-180.53,33.431
	c35.464-11.267,70.374-33.279,101.752-64.657c9.85-9.85,18.802-20.125,26.813-30.698l54.43,33.175
	c0.013,0.008,0.027,0.016,0.041,0.024c0.034,0.021,0.069,0.044,0.104,0.065C496.685,427.122,499.043,437.004,494.458,444.528z"/>
<g>
</g>
<g>
</g>
<g>
</g>
<g>
</g>
<g>
</g>
<g>
</g>
<g>
</g>
<g>
</g>
<g>
</g>
<g>
</g>
<g>
</g>
<g>
</g>
<g>
</g>
<g>
</g>
<g>
</g>
</svg>
