<?xml version="1.0" encoding="iso-8859-1"?>
<!-- Generator: Adobe Illustrator 19.0.0, SVG Export Plug-In . SVG Version: 6.00 Build 0)  -->
<svg version="1.1" id="Capa_1" xmlns="http://www.w3.org/2000/svg" xmlns:xlink="http://www.w3.org/1999/xlink" x="0px" y="0px"
	 viewBox="0 0 512 512" style="enable-background:new 0 0 512 512;" xml:space="preserve">
<g>
	<polygon style="fill:#C6C5CA;" points="285.438,504.5 471.272,504.5 448.517,113.262 308.193,113.262 	"/>
	<polygon style="fill:#C6C5CA;" points="322.535,7.5 322.535,55.024 359.806,55.024 359.806,7.5 396.904,7.5 396.904,55.024 
		434.175,55.024 434.175,7.5 471.272,7.5 471.272,113.262 285.438,113.262 285.438,7.5 	"/>
	<polygon style="fill:#C6C5CA;" points="40.728,504.5 226.562,504.5 203.807,113.262 63.483,113.262 	"/>
</g>
<g>
	<path style="fill:#898890;" d="M183.883,312.987H126.39v-54.934c0-15.876,12.87-28.746,28.746-28.746l0,0
		c15.876,0,28.746,12.87,28.746,28.746L183.883,312.987L183.883,312.987z"/>
	<rect x="113.37" y="312.99" style="fill:#898890;" width="83.53" height="25.633"/>
	<path style="fill:#898890;" d="M428.593,312.987H371.1v-54.934c0-15.876,12.87-28.746,28.746-28.746l0,0
		c15.876,0,28.746,12.87,28.746,28.746L428.593,312.987L428.593,312.987z"/>
	<rect x="358.08" y="312.99" style="fill:#898890;" width="83.53" height="25.633"/>
</g>
<polygon style="fill:#C6C5CA;" points="77.825,7.5 77.825,55.024 115.096,55.024 115.096,7.5 152.194,7.5 152.194,55.024 
	189.465,55.024 189.465,7.5 226.562,7.5 226.562,113.262 40.728,113.262 40.728,7.5 "/>
<path style="fill:#898890;" d="M162.391,312.987h-57.492v-54.934c0-15.876,12.87-28.746,28.746-28.746l0,0
	c15.876,0,28.746,12.87,28.746,28.746V312.987z"/>
<rect x="91.87" y="312.99" style="fill:#E0E0E2;" width="83.53" height="25.633"/>
<path style="fill:#898890;" d="M407.101,312.987h-57.492v-54.934c0-15.876,12.87-28.746,28.746-28.746l0,0
	c15.876,0,28.746,12.87,28.746,28.746V312.987z"/>
<rect x="336.58" y="312.99" style="fill:#E0E0E2;" width="83.53" height="25.633"/>
<g>
	<rect x="189.47" y="7.5" style="fill:#898890;" width="34" height="47.524"/>
	<rect x="359.81" y="7.5" style="fill:#898890;" width="34" height="47.524"/>
	<rect x="434.18" y="7.5" style="fill:#898890;" width="34" height="47.524"/>
	<rect x="115.1" y="7.5" style="fill:#898890;" width="34" height="47.524"/>
	<polygon style="fill:#898890;" points="74.728,113.262 74.728,7.5 40.728,7.5 40.728,113.262 63.483,113.262 40.728,504.5 
		74.728,504.5 97.483,113.262 	"/>
	<polygon style="fill:#898890;" points="319.438,113.262 319.438,7.5 285.438,7.5 285.438,113.262 308.193,113.262 285.438,504.5 
		319.438,504.5 342.193,113.262 	"/>
</g>
<g>
	
		<rect x="157.765" y="393.634" transform="matrix(0.0581 0.9983 -0.9983 0.0581 578.6499 188.9618)" style="fill:#FFFFFF;" width="62.841" height="15"/>
	
		<rect x="186.009" y="467.455" transform="matrix(-0.0581 -0.9983 0.9983 -0.0581 -269.4006 695.7325)" style="fill:#FFFFFF;" width="15" height="15"/>
	
		<rect x="184.538" y="442.472" transform="matrix(0.0581 0.9983 -0.9983 0.0581 630.0919 232.1153)" style="fill:#FFFFFF;" width="15" height="15"/>
	
		<rect x="402.467" y="393.64" transform="matrix(0.0581 0.9983 -0.9983 0.0581 809.1409 -55.3215)" style="fill:#FFFFFF;" width="62.841" height="15"/>
	
		<rect x="429.239" y="442.478" transform="matrix(0.0581 0.9983 -0.9983 0.0581 860.582 -12.167)" style="fill:#FFFFFF;" width="15" height="15"/>
	
		<rect x="430.727" y="467.448" transform="matrix(-0.0581 -0.9983 0.9983 -0.0581 -10.4577 940.0294)" style="fill:#FFFFFF;" width="15" height="15"/>
</g>
<g>
	<rect x="89.01" y="77.69" style="fill:#1D1D1F;" width="15" height="15"/>
	<rect x="64.01" y="77.69" style="fill:#1D1D1F;" width="15" height="15"/>
	<path style="fill:#1D1D1F;" d="M234.063,0h-52.098v47.524h-22.271V0h-52.097v47.524H85.325V0H33.228v120.762h200.835V0z
		 M48.228,105.762V15h22.098v47.524h52.271V15h22.097v47.524h52.271V15h22.098v57.174h-50.26v15h50.26v18.588
		C219.063,105.762,48.228,105.762,48.228,105.762z"/>
	<rect x="142.97" y="149.17" style="fill:#1D1D1F;" width="15" height="15"/>
	<rect x="167.97" y="149.17" style="fill:#1D1D1F;" width="15" height="15"/>
	<rect x="117.97" y="149.17" style="fill:#1D1D1F;" width="15" height="15"/>
	<rect x="95.94" y="378.12" style="fill:#1D1D1F;" width="15" height="15"/>
	<rect x="70.943" y="378.12" style="fill:#1D1D1F;" width="15" height="15"/>
	<rect x="120.94" y="378.12" style="fill:#1D1D1F;" width="15" height="15"/>
	<path style="fill:#1D1D1F;" d="M182.909,305.487h-13.018v-47.435c0-19.986-16.261-36.246-36.247-36.246
		c-19.985,0-36.245,16.26-36.245,36.246v47.435H84.374v40.633h98.535V305.487z M112.399,258.052
		c0-11.715,9.531-21.246,21.246-21.246c11.715,0,21.246,9.531,21.246,21.246v47.435h-42.492V258.052z M167.909,331.12H99.374
		v-10.633h68.535V331.12z"/>
	<rect x="412.08" y="75.18" style="fill:#1D1D1F;" width="15" height="15"/>
	<rect x="387.08" y="75.18" style="fill:#1D1D1F;" width="15" height="15"/>
	<rect x="437.08" y="75.18" style="fill:#1D1D1F;" width="15" height="15"/>
	<polygon style="fill:#1D1D1F;" points="457.167,132.826 442.192,133.697 445.348,187.953 391.387,187.953 391.387,202.953 
		446.22,202.953 463.323,497 293.387,497 299.266,395.918 366.707,395.918 366.707,380.918 300.138,380.918 305.514,288.493 
		327.9,288.493 327.9,273.493 306.386,273.493 314.517,133.697 299.542,132.826 277.488,512 479.222,512 	"/>
	<path style="fill:#1D1D1F;" d="M478.772,0h-52.098v47.524h-22.271V0h-52.097v47.524h-22.271V0h-52.098v120.762h200.835L478.772,0
		L478.772,0z M463.772,105.762H292.938V83.666h18.637v-15h-18.637V15h22.098v47.524h52.271V15h22.097v47.524h52.271V15h22.098
		L463.772,105.762L463.772,105.762z"/>
	<rect x="322.93" y="135.83" style="fill:#1D1D1F;" width="15" height="15"/>
	<rect x="372.93" y="135.83" style="fill:#1D1D1F;" width="15" height="15"/>
	<rect x="347.93" y="135.83" style="fill:#1D1D1F;" width="15" height="15"/>
	<rect x="313.17" y="460.11" style="fill:#1D1D1F;" width="15" height="15"/>
	<rect x="338.17" y="460.11" style="fill:#1D1D1F;" width="15" height="15"/>
	<rect x="363.17" y="460.11" style="fill:#1D1D1F;" width="15" height="15"/>
	<path style="fill:#1D1D1F;" d="M378.354,221.806c-19.985,0-36.245,16.26-36.245,36.246v47.435h-13.025v40.633h98.535v-40.633
		h-13.018v-47.435C414.602,238.066,398.341,221.806,378.354,221.806z M357.109,258.052c0-11.715,9.531-21.246,21.246-21.246
		s21.246,9.531,21.246,21.246v47.435h-42.492V258.052z M412.619,331.12h-68.535v-10.633h68.535V331.12z"/>
	<polygon style="fill:#1D1D1F;" points="197.483,133.697 205.614,273.493 184.1,273.493 184.1,288.493 206.486,288.493 218.613,497 
		48.677,497 51.281,452.221 82.521,452.221 82.521,437.221 52.154,437.221 65.78,202.953 120.613,202.953 120.613,187.953 
		66.652,187.953 69.808,133.697 54.833,132.826 32.778,512 234.512,512 212.458,132.826 	"/>
</g>
<g>
</g>
<g>
</g>
<g>
</g>
<g>
</g>
<g>
</g>
<g>
</g>
<g>
</g>
<g>
</g>
<g>
</g>
<g>
</g>
<g>
</g>
<g>
</g>
<g>
</g>
<g>
</g>
<g>
</g>
</svg>
