<?xml version="1.0" encoding="iso-8859-1"?>
<!-- Generator: Adobe Illustrator 19.0.0, SVG Export Plug-In . SVG Version: 6.00 Build 0)  -->
<svg version="1.1" id="Layer_1" xmlns="http://www.w3.org/2000/svg" xmlns:xlink="http://www.w3.org/1999/xlink" x="0px" y="0px"
	 viewBox="0 0 512.001 512.001" style="enable-background:new 0 0 512.001 512.001;" xml:space="preserve">
<path style="fill:#CC7400;" d="M444.553,24.787H70.68c-10.282,0-18.694,8.412-18.694,18.694v229
	c0,10.282,8.412,18.694,18.694,18.694h373.874c10.282,0,18.694-8.412,18.694-18.694v-229
	C463.247,33.199,454.835,24.787,444.553,24.787z"/>
<g>
	<path style="fill:#AA6100;" d="M127.687,272.48v-229c0-10.282,8.412-18.694,18.694-18.694H70.68
		c-10.282,0-18.694,8.412-18.694,18.694v229c0,10.282,8.412,18.694,18.694,18.694h75.702
		C136.1,291.174,127.687,282.762,127.687,272.48z"/>
	<path style="fill:#AA6100;" d="M435.791,42.312H79.443c-5.141,0-9.347,4.207-9.347,9.347v211.474c0,5.14,4.207,9.347,9.347,9.347
		h356.348c5.14,0,9.347-4.206,9.347-9.347V51.659C445.137,46.518,440.931,42.312,435.791,42.312z"/>
</g>
<g>
	<path style="fill:#9A4C00;" d="M127.687,43.48c0-0.394,0.035-0.78,0.06-1.168H79.443c-5.14,0-9.347,4.207-9.347,9.347v211.474
		c0,5.14,4.207,9.347,9.347,9.347h48.246l0,0v-229H127.687z"/>
	<path style="fill:#9A4C00;" d="M70.096,51.659v61.454h375.042V51.659c0-5.141-4.207-9.347-9.347-9.347H79.443
		C74.301,42.312,70.096,46.518,70.096,51.659z"/>
</g>
<path style="fill:#663A00;" d="M127.747,42.312H79.443c-5.14,0-9.347,4.207-9.347,9.347v61.454h57.592V43.48
	C127.687,43.086,127.723,42.701,127.747,42.312z"/>
<path style="fill:#9A4C00;" d="M445.137,245.37v-61.454H70.096v61.454c0,5.14,4.207,9.347,9.347,9.347h356.348
	C440.931,254.716,445.137,250.511,445.137,245.37z"/>
<path style="fill:#C6C5CA;" d="M276.149,41.97h-37.066c-2.23,0-4.055-1.825-4.055-4.055V11.659c0-2.23,1.825-4.055,4.055-4.055
	h37.066c2.23,0,4.055,1.825,4.055,4.055v26.254C280.204,40.145,278.379,41.97,276.149,41.97z"/>
<path style="fill:#ACABB1;" d="M257.617,37.914V11.659c0-2.23,1.825-4.055,4.055-4.055h-22.588c-2.23,0-4.055,1.825-4.055,4.055
	v26.254c0,2.23,1.825,4.055,4.055,4.055h22.588C259.442,41.97,257.617,40.145,257.617,37.914z"/>
<path style="fill:#663A00;" d="M127.747,254.716H79.443c-5.14,0-9.347-4.207-9.347-9.347v-61.454h57.592v69.633
	C127.687,253.943,127.723,254.328,127.747,254.716z"/>
<circle style="fill:#FFD422;" cx="120.468" cy="181.735" r="25.853"/>
<circle style="fill:#EEBF00;" cx="165.645" cy="181.735" r="25.853"/>
<circle style="fill:#FFD422;" cx="210.823" cy="181.735" r="25.853"/>
<circle style="fill:#EEBF00;" cx="256.001" cy="181.735" r="25.853"/>
<circle style="fill:#FFD422;" cx="301.178" cy="181.735" r="25.853"/>
<circle style="fill:#EEBF00;" cx="346.356" cy="181.735" r="25.853"/>
<circle style="fill:#FFD422;" cx="391.534" cy="181.735" r="25.853"/>
<circle style="fill:#FFE477;" cx="97.879" cy="212.262" r="25.853"/>
<circle style="fill:#FFD422;" cx="143.056" cy="212.262" r="25.853"/>
<circle style="fill:#FFE477;" cx="188.234" cy="212.262" r="25.853"/>
<circle style="fill:#FFD422;" cx="233.412" cy="212.262" r="25.853"/>
<circle style="fill:#FFE477;" cx="278.589" cy="212.262" r="25.853"/>
<circle style="fill:#FFD422;" cx="323.767" cy="212.262" r="25.853"/>
<circle style="fill:#FFE477;" cx="368.945" cy="212.262" r="25.853"/>
<circle style="fill:#FFD422;" cx="414.122" cy="212.262" r="25.853"/>
<g>
	<path style="fill:#ACABB1;" d="M49.213,322.139H17.667c-5.141,0-9.347,4.206-9.347,9.347v60.553c0,5.141,4.207,9.347,9.347,9.347
		h31.546c5.141,0,9.347-4.206,9.347-9.347v-60.553C58.56,326.346,54.354,322.139,49.213,322.139z"/>
	<path style="fill:#ACABB1;" d="M494.334,322.139h-31.546c-5.14,0-9.347,4.206-9.347,9.347v60.553c0,5.141,4.206,9.347,9.347,9.347
		h31.545c5.14,0,9.347-4.206,9.347-9.347v-60.553C503.681,326.346,499.474,322.139,494.334,322.139z"/>
</g>
<path style="fill:#AA6100;" d="M458.699,221.891H53.302c-10.924,0-19.862,8.938-19.862,19.862v242.782
	c0,10.924,8.938,19.862,19.862,19.862h405.397c10.924,0,19.862-8.938,19.862-19.862V241.753
	C478.561,230.829,469.623,221.891,458.699,221.891z"/>
<path style="fill:#9A4C00;" d="M143.116,484.535V241.753c0-10.924,8.938-19.862,19.862-19.862H53.302
	c-10.924,0-19.862,8.938-19.862,19.862v242.781c0,10.924,8.938,19.862,19.862,19.862h109.676
	C152.054,504.396,143.116,495.459,143.116,484.535z"/>
<path style="fill:#EE8700;" d="M435.332,256.942H76.67c-4.499,0-8.179,3.68-8.179,8.179v196.047c0,4.499,3.68,8.179,8.179,8.179
	h358.663c4.499,0,8.179-3.68,8.179-8.179V265.12C443.51,260.622,439.83,256.942,435.332,256.942z"/>
<g>
	<path style="fill:#CC7400;" d="M76.67,256.942c-4.499,0-8.179,3.68-8.179,8.179v196.047c0,4.499,3.68,8.179,8.179,8.179h66.447
		V256.943H76.67V256.942z"/>
	<path style="fill:#CC7400;" d="M68.491,265.12v62.623H443.51V265.12c0-4.499-3.68-8.179-8.179-8.179H76.67
		C72.171,256.942,68.491,260.622,68.491,265.12z"/>
	<path style="fill:#CC7400;" d="M443.51,461.167v-62.623H68.491v62.623c0,4.499,3.68,8.179,8.179,8.179h358.663
		C439.83,469.346,443.51,465.666,443.51,461.167z"/>
</g>
<g>
	<path style="fill:#AA6100;" d="M76.67,256.942c-4.499,0-8.179,3.68-8.179,8.179v62.623h74.625v-70.801H76.67V256.942z"/>
	<path style="fill:#AA6100;" d="M68.491,398.544v62.623c0,4.499,3.68,8.179,8.179,8.179h66.447v-70.801L68.491,398.544
		L68.491,398.544z"/>
</g>
<rect x="238.471" y="256.943" style="fill:#9A4C00;" width="35.05" height="212.404"/>
<path style="fill:#C6C5CA;" d="M114.348,221.891H53.302c-10.924,0-19.862,8.938-19.862,19.862v61.046
	c0.001,7.739,9.3,6.01,9.913,5.849v0.001c25.138-5.599,25.138-43.528,25.138-43.528c0-4.499,3.68-8.179,8.179-8.179
	c0,0,36.655,0,43.528-25.138h-0.001C120.358,231.192,122.087,221.892,114.348,221.891z"/>
<path style="fill:#ACABB1;" d="M100.082,221.891h-46.78c-10.924,0-19.862,8.938-19.862,19.862v61.046
	c0.001,7.739,9.3,6.01,9.913,5.849v0.001c25.138-5.599,25.138-43.528,25.138-43.528c0-4.499,3.68-8.179,8.179-8.179
	c0,0,1.342-0.001,3.551-0.176v-15.012C80.22,230.829,89.158,221.891,100.082,221.891z"/>
<g>
	<path style="fill:#C6C5CA;" d="M33.44,423.489v61.046c0,10.924,8.938,19.862,19.862,19.862h61.046
		c7.739-0.001,6.01-9.3,5.849-9.913h0.001c-5.599-25.138-43.528-25.138-43.528-25.138c-4.499,0-8.179-3.68-8.179-8.179
		c0,0,0-36.655-25.138-43.528v0.001C42.741,417.479,33.441,415.749,33.44,423.489z"/>
	<path style="fill:#C6C5CA;" d="M397.653,504.396h61.046c10.924,0,19.862-8.938,19.862-19.862v-61.046
		c-0.001-7.739-9.3-6.01-9.913-5.849v-0.001c-25.138,5.599-25.138,43.528-25.138,43.528c0,4.499-3.68,8.179-8.179,8.179
		c0,0-36.655,0-43.528,25.138h0.001C391.643,495.096,389.914,504.396,397.653,504.396z"/>
	<path style="fill:#C6C5CA;" d="M478.561,302.799v-61.046c0-10.924-8.938-19.862-19.862-19.862h-61.046
		c-7.739,0.001-6.01,9.3-5.849,9.913h-0.001c5.599,25.138,43.528,25.138,43.528,25.138c4.499,0,8.179,3.68,8.179,8.179
		c0,0,0,36.655,25.138,43.528v-0.001C469.26,308.809,478.56,310.538,478.561,302.799z"/>
</g>
<g>
	<path style="fill:#ACABB1;" d="M456.618,255.713c0-4.498-3.68-8.179-8.179-8.179c0,0-37.93,0-43.528-25.138h0.001
		c-0.017-0.067-0.056-0.253-0.096-0.507h-7.162c-7.739,0.001-6.01,9.3-5.849,9.913h-0.001c5.599,25.138,43.528,25.138,43.528,25.138
		c4.499,0,8.179,3.68,8.179,8.179c0,0,0,36.655,25.138,43.528v-0.001c0.612,0.161,9.913,1.89,9.913-5.849v-4.666
		C456.635,289.157,456.618,255.713,456.618,255.713z"/>
	<path style="fill:#ACABB1;" d="M444.738,482.453c4.499,0,8.179-3.68,8.179-8.179c0,0,0-37.93,25.138-43.528v0.001
		c0.067-0.017,0.253-0.056,0.507-0.096v-7.162c-0.001-7.739-9.3-6.01-9.913-5.849v-0.001c-25.138,5.599-25.138,43.528-25.138,43.528
		c0,4.499-3.68,8.179-8.179,8.179c0,0-36.655,0-43.528,25.138h0.001c-0.161,0.612-1.89,9.913,5.849,9.913h4.666
		C411.295,482.47,444.738,482.453,444.738,482.453z"/>
</g>
<path style="fill:#C6C5CA;" d="M270.05,249.876H241.95c-4.499,0-8.179,3.68-8.179,8.179v46.303c0,4.499,3.68,8.179,8.179,8.179
	h28.099c4.499,0,8.179-3.68,8.179-8.179v-46.303C278.228,253.557,274.548,249.876,270.05,249.876z"/>
<g>
	<path style="fill:#ACABB1;" d="M256.36,304.358v-46.303c0-4.498,3.68-8.179,8.179-8.179h-22.588c-4.499,0-8.179,3.68-8.179,8.179
		v46.303c0,4.499,3.68,8.179,8.179,8.179h22.588C260.041,312.536,256.36,308.856,256.36,304.358z"/>
	<path style="fill:#ACABB1;" d="M100.082,504.396h-46.78c-10.924,0-19.862-8.938-19.862-19.862v-61.046
		c0.001-7.739,9.3-6.01,9.913-5.849v-0.001c25.138,5.599,25.138,43.528,25.138,43.528c0,4.499,3.68,8.179,8.179,8.179
		c0,0,1.342,0.001,3.551,0.176v15.012C80.22,495.459,89.158,504.396,100.082,504.396z"/>
</g>
<g>
	<path style="fill:#3E3D42;" d="M54.918,255.74c-2.358,0-4.656-0.953-6.31-2.62c-1.668-1.656-2.62-3.965-2.62-6.31
		c0-2.346,0.952-4.656,2.62-6.311c1.655-1.667,3.952-2.619,6.31-2.619c2.357,0,4.656,0.952,6.31,2.619
		c1.668,1.656,2.62,3.965,2.62,6.311c0,2.345-0.952,4.656-2.62,6.31C59.574,254.787,57.276,255.74,54.918,255.74z"/>
	<path style="fill:#3E3D42;" d="M457.083,255.74c-2.358,0-4.656-0.953-6.31-2.62c-1.668-1.656-2.62-3.965-2.62-6.31
		c0-2.346,0.952-4.656,2.62-6.311c1.655-1.667,3.952-2.619,6.31-2.619c2.357,0,4.656,0.952,6.31,2.619
		c1.668,1.656,2.62,3.965,2.62,6.311c0,2.345-0.952,4.656-2.62,6.31C461.739,254.787,459.44,255.74,457.083,255.74z"/>
	<path style="fill:#3E3D42;" d="M457.083,488.407c-2.358,0-4.656-0.953-6.31-2.62c-1.668-1.656-2.62-3.965-2.62-6.31
		c0-2.346,0.952-4.656,2.62-6.311c1.655-1.667,3.952-2.619,6.31-2.619c2.357,0,4.656,0.952,6.31,2.619
		c1.668,1.656,2.62,3.965,2.62,6.311c0,2.345-0.952,4.656-2.62,6.31C461.739,487.454,459.44,488.407,457.083,488.407z"/>
	<path style="fill:#3E3D42;" d="M54.918,488.407c-2.358,0-4.656-0.953-6.31-2.62c-1.668-1.656-2.62-3.965-2.62-6.31
		c0-2.346,0.952-4.656,2.62-6.311c1.655-1.667,3.952-2.619,6.31-2.619c2.357,0,4.656,0.952,6.31,2.619
		c1.668,1.656,2.62,3.965,2.62,6.311c0,2.345-0.952,4.656-2.62,6.31C59.574,487.454,57.276,488.407,54.918,488.407z"/>
</g>
<path d="M367.863,390.941h-12.166c-4.199,0-7.604,3.404-7.604,7.604c0,4.2,3.405,7.604,7.604,7.604h12.166
	c4.199,0,7.604-3.404,7.604-7.604C375.467,394.344,372.062,390.941,367.863,390.941z"/>
<path d="M494.334,314.535h-8.169v-11.736v-22.473v-38.573c0-10.783-6.249-20.13-15.313-24.622V43.48
	c0-14.5-11.797-26.298-26.298-26.298H287.808v-5.524c0-6.429-5.23-11.659-11.659-11.659h-37.066
	c-6.429,0-11.659,5.231-11.659,11.659v5.524H70.68c-14.5,0-26.298,11.797-26.298,26.298v172.302
	c-10.778,3.712-18.546,13.948-18.546,25.97v61.047v0.001v11.735h-8.169c-9.347,0-16.951,7.604-16.951,16.951v60.554
	c0,9.347,7.604,16.951,16.951,16.951h8.169v14.499v61.046c0,15.145,12.321,27.466,27.466,27.466h61.046h283.305h61.046
	c15.145,0,27.466-12.32,27.466-27.466v-38.929V423.49v-14.498h8.169c9.347,0,16.951-7.604,16.951-16.951v-60.554
	C511.285,322.139,503.681,314.535,494.334,314.535z M383.923,496.792H128.077c-0.044-1.894-1.174-13.168-9.013-19.842h274.406
	C387.296,481.935,384.592,489.539,383.923,496.792z M41.044,316.519c1.667-0.036,13.536-1.702,19.842-9.006v111.79
	c-4.036-4.011-11.545-9.691-19.842-9.535V316.519z M79.208,214.287c0-19.659,17.352-20.267,17.678-20.347
	c0.327,0.043,10.837,0.185,16.7,9.018c1.539,2.319,5.416,5.614,10.421,2.652c3.614-2.138,4.798-6.811,2.653-10.42
	c-5.222-8.789-14.243-14.677-24.23-16.065c1.273-8.827,8.866-15.638,18.041-15.638c6.609,0,12.72,3.594,15.947,9.379
	c1.343,2.407,3.884,3.899,6.641,3.899s5.297-1.492,6.641-3.899c3.227-5.785,9.338-9.379,15.948-9.379
	c6.609,0,12.72,3.594,15.947,9.379c1.343,2.407,3.884,3.899,6.641,3.899c2.757,0,5.297-1.492,6.641-3.9
	c3.227-5.784,9.338-9.378,15.947-9.378s12.72,3.594,15.947,9.379c1.343,2.407,3.884,3.899,6.641,3.899s5.297-1.492,6.641-3.899
	c3.227-5.785,9.338-9.379,15.947-9.379s12.72,3.594,15.947,9.379c1.343,2.407,3.884,3.899,6.641,3.899s5.297-1.492,6.641-3.899
	c3.227-5.785,9.338-9.379,15.947-9.379c6.61,0,12.72,3.594,15.947,9.378c1.343,2.408,3.884,3.9,6.641,3.9s5.297-1.492,6.641-3.899
	c3.227-5.785,9.338-9.379,15.948-9.379c6.609,0,12.72,3.594,15.947,9.379c1.343,2.407,3.884,3.899,6.641,3.899
	s5.297-1.492,6.641-3.899c3.227-5.785,9.338-9.379,15.947-9.379c9.116,0,16.67,6.725,18.014,15.471
	c-10.601,0.965-20.297,6.991-25.789,16.233c-2.145,3.61-0.872,8.138,2.653,10.42c4.182,2.708,8.891-0.328,10.421-2.652
	c7.068-10.735,17.021-9.041,17.639-9.204c0.527,0.18,17.817,1.634,17.817,20.533H79.208V214.287z M429.929,57.52v47.99H296.048
	c-4.199,0-7.604,3.404-7.604,7.604c0,4.2,3.405,7.604,7.604,7.604h133.881v62.043c-1.581-0.846-3.235-1.575-4.962-2.162
	c-0.602-17.924-15.37-32.32-33.438-32.32c-8.477,0-16.506,3.222-22.588,8.785c-6.082-5.563-14.111-8.785-22.588-8.785
	c-8.478,0-16.506,3.222-22.589,8.785c-6.082-5.563-14.11-8.785-22.588-8.785c-8.477,0-16.506,3.222-22.588,8.785
	c-6.082-5.563-14.111-8.785-22.588-8.785c-8.477,0-16.506,3.222-22.588,8.785c-6.082-5.563-14.111-8.785-22.588-8.785
	c-8.478,0-16.506,3.222-22.588,8.785c-6.083-5.563-14.111-8.785-22.588-8.785c-8.478,0-16.506,3.222-22.589,8.785
	c-6.082-5.563-14.111-8.785-22.588-8.785c-18.068,0-32.836,14.396-33.437,32.32c-0.588,0.2-1.158,0.435-1.731,0.666v-60.547h184.889
	c4.199,0,7.604-3.404,7.604-7.604c0-4.2-3.405-7.604-7.604-7.604H85.304V57.52H429.929z M128.078,229.495h255.848
	c1.174,9.958,5.029,15.749,9.012,19.842H283.194c-2.831-4.253-7.664-7.066-13.145-7.066H241.95c-5.481,0-10.314,2.811-13.145,7.066
	H118.532c4.011-4.036,7.25-9.133,9.017-15.597C127.59,233.588,128.023,231.874,128.078,229.495z M435.906,461.167
	c0,0.301-0.274,0.574-0.575,0.574c-0.257,0-154.202,0-154.202,0v-55.593h52.432c4.199,0,7.604-3.404,7.604-7.604
	s-3.405-7.604-7.604-7.604H281.13v-55.594h154.777v55.594h-45.063c-4.199,0-7.604,3.404-7.604,7.604s3.405,7.604,7.604,7.604h45.062
	C435.906,406.149,435.906,460.919,435.906,461.167z M76.67,461.742c-0.301,0-0.575-0.274-0.575-0.574v-55.019h154.777v55.593H76.67z
	 M76.67,264.546c0.19,0,0.869-0.007,1.899-0.054c0.287,0.032,0.578,0.054,0.874,0.054h146.726v39.812
	c0,4.387,1.803,8.359,4.702,11.222v4.559h-28.098c-4.199,0-7.604,3.404-7.604,7.604c0,4.2,3.405,7.604,7.604,7.604h28.099v55.594
	H76.095v-55.594h103.359c4.199,0,7.604-3.404,7.604-7.604c0-4.2-3.405-7.604-7.604-7.604H76.095v-55.019
	C76.095,264.819,76.369,264.546,76.67,264.546z M435.331,264.546c0.301,0,0.575,0.274,0.575,0.574v55.019H281.13v-4.559
	c2.9-2.863,4.702-6.835,4.702-11.222v-39.812h149.499V264.546z M270.624,304.357c0,0.301-29.248,0.301-29.248,0v-46.303
	c0-0.301,29.248-0.301,29.248,0V304.357z M246.079,320.14h19.842v141.602h-19.842V320.14z M451.114,306.983
	c8.292,8.805,18.029,9.496,19.842,9.535v93.249c-1.67,0.037-11.678-0.451-19.842,9.007L451.114,306.983L451.114,306.983z
	 M470.957,280.326v20.977c-20.929-5.665-19.841-35.891-19.842-36.183c0-8.702-7.08-15.782-15.769-15.782
	c-0.318-0.001-29.675,1.817-36.199-19.842h59.551c6.759,0,12.258,5.499,12.258,12.258v38.572H470.957z M444.553,32.391
	c6.116,0,11.09,4.974,11.09,11.09v170.807h-8.139c0.041-0.673,0.37-8.757-2.366-14.576V51.659c0-5.14-4.206-9.347-9.347-9.347
	h-148.85c0.556-1.359,0.868-2.842,0.868-4.398v-5.523h156.745V32.391z M242.632,15.208H272.6v19.158h-29.969L242.632,15.208
	L242.632,15.208z M70.68,32.391h156.745v5.523c0,1.556,0.312,3.04,0.868,4.398H79.443c-5.14,0-9.347,4.207-9.347,9.347v141.973
	c-7.109,8.984-5.566,20.01-5.389,20.654H59.59V43.48C59.59,37.365,64.565,32.391,70.68,32.391z M41.044,241.752
	c0-6.758,5.499-12.258,12.258-12.258h59.552c-2.681,20.434-35.893,19.841-36.185,19.842c-8.439,0-15.333,6.664-15.743,15.003
	c-0.026,0.257,1.258,33.24-19.882,36.962C41.044,301.302,41.044,241.752,41.044,241.752z M17.667,393.782
	c-0.945,0-1.743-0.798-1.743-1.743v-60.554c0-0.945,0.798-1.743,1.743-1.743h8.169v64.039h-8.169V393.782z M41.044,484.535v-59.55
	c0.227,0.016,0.418,0.039,0.542,0.058c18.95,5.431,19.299,35.834,19.301,36.126c0,8.702,7.08,15.782,15.769,15.782
	c0.318,0.001,30.984-2.788,36.199,19.842H53.302C46.543,496.792,41.044,491.293,41.044,484.535z M470.957,484.535
	c0,6.758-5.499,12.258-12.258,12.258h-59.552c3.864-23.644,35.893-19.841,36.185-19.842c8.702,0,15.783-7.08,15.783-15.782
	c0-0.318-0.199-30.053,19.842-36.183v20.621V484.535z M496.077,392.04c0,0.945-0.798,1.743-1.743,1.743h-8.169v-64.039h8.169
	c0.945,0,1.743,0.798,1.743,1.743V392.04z"/>
<g>
</g>
<g>
</g>
<g>
</g>
<g>
</g>
<g>
</g>
<g>
</g>
<g>
</g>
<g>
</g>
<g>
</g>
<g>
</g>
<g>
</g>
<g>
</g>
<g>
</g>
<g>
</g>
<g>
</g>
</svg>
